<svg xmlns="http://www.w3.org/2000/svg" width="84.17" height="80.602" viewBox="0 0 84.17 80.602">
  <g id="elation-brandmark-logo" transform="translate(-1068.6 -1183.803)">
    <path id="Path_616" data-name="Path 616" d="M1120.779,1260.975c-21.093,5.257-35.756,8.914-50.013-24.093-8.618-19.957,9.876-47.031,30.97-52.289s44.723,16.685,49.983,37.778S1141.868,1255.714,1120.779,1260.975Z" transform="translate(0 0)" fill="#0cce6b"/>
    <g id="Group_24" data-name="Group 24" transform="translate(1088.011 1202.346)">
      <path id="Path_617" data-name="Path 617" d="M1098.193,1208.868a5.479,5.479,0,0,1-2.129,3.328,6.885,6.885,0,0,1-4.2,1.232,6.609,6.609,0,0,1-4.73-1.8c-1.273-1.2-1.956-2.967-2.061-5.5l20.887.462a19.9,19.9,0,0,0,.256-3.033,14.008,14.008,0,0,0-1.721-6.969,12.37,12.37,0,0,0-4.891-4.813,15.03,15.03,0,0,0-7.381-1.748,15.39,15.39,0,0,0-7.408,1.748,12.308,12.308,0,0,0-5.046,5.073,17.734,17.734,0,0,0,0,15.561,12.511,12.511,0,0,0,5.046,5.067,16.313,16.313,0,0,0,13.864.438,12.63,12.63,0,0,0,4.76-3.7,12.283,12.283,0,0,0,1.819-3.287Zm-10.906-11.338a7.151,7.151,0,0,1,4.941-1.8,6.976,6.976,0,0,1,4.861,1.8,5.823,5.823,0,0,1,1.828,5.025l-13.84.265A7.359,7.359,0,0,1,1087.287,1197.53Z" transform="translate(-1069.424 -1190.021)" fill="#fff"/>
      <path id="Path_618" data-name="Path 618" d="M1116.972,1198.727l-1.133,1.47c-4.038,5.222-15.584,16.083-35.6,4.122l-1.413-.844-3.713,7.351,1.264.721c.164.1,10.584,5.926,22.551,4.515,6.972-.823,14.463-4.1,20.768-12.385l.763-1Z" transform="translate(-1075.109 -1172.764)" fill="#390049"/>
    </g>
  </g>
</svg>
