<svg xmlns="http://www.w3.org/2000/svg" width="57.209" height="58.387" viewBox="0 0 57.209 58.387">
  <g id="insta" transform="translate(-1364.787 -7115)">
    <g id="Group_15795" data-name="Group 15795" transform="translate(-0.134 -0.342)">
      <path id="Path_25424" data-name="Path 25424" d="M1094.017,1221.394c-10.274,2.561-17.417,4.342-24.362-11.736-4.2-9.721,4.811-22.909,15.086-25.47s21.785,8.127,24.347,18.4S1104.29,1218.831,1094.017,1221.394Z" transform="translate(-194.37 7484.382) rotate(-60)" fill="#0cce6b"/>
      <path id="Path_25423" data-name="Path 25423" d="M1094.017,1221.394c-10.274,2.561-17.417,4.342-24.362-11.736-4.2-9.721,4.811-22.909,15.086-25.47s21.785,8.127,24.347,18.4S1104.29,1218.831,1094.017,1221.394Z" transform="translate(-193.138 7486.249) rotate(-60)" fill="none" stroke="#0cce6b" stroke-width="2"/>
    </g>
    <text id="_" data-name="" transform="translate(1393 7151)" fill="#fff" font-size="20" font-family="FontAwesome5Brands-Regular, 'Font Awesome \35  Brands'" letter-spacing="0.015em"><tspan x="-8.75" y="0"></tspan></text>
  </g>
</svg>
