<svg xmlns="http://www.w3.org/2000/svg" width="58.386" height="57.209" viewBox="0 0 58.386 57.209">
  <g id="linked-in" transform="translate(-1311 -7114.737)">
    <g id="Group_15794" data-name="Group 15794" transform="translate(-0.498 0.022)">
      <path id="Path_25422" data-name="Path 25422" d="M1094.017,1221.394c-10.274,2.561-17.417,4.342-24.362-11.736-4.2-9.721,4.811-22.909,15.086-25.47s21.785,8.127,24.347,18.4S1104.29,1218.831,1094.017,1221.394Z" transform="translate(1680.538 8731.214) rotate(-150)" fill="#0cce6b"/>
      <path id="Path_25421" data-name="Path 25421" d="M1094.017,1221.394c-10.274,2.561-17.417,4.342-24.362-11.736-4.2-9.721,4.811-22.909,15.086-25.47s21.785,8.127,24.347,18.4S1104.29,1218.831,1094.017,1221.394Z" transform="translate(1682.405 8729.982) rotate(-150)" fill="none" stroke="#0cce6b" stroke-width="2"/>
    </g>
    <text id="_" data-name="" transform="translate(1340 7151)" fill="#fff" font-size="20" font-family="FontAwesome5Brands-Regular, 'Font Awesome \35  Brands'" letter-spacing="0.015em"><tspan x="-8.75" y="0"></tspan></text>
  </g>
</svg>
