<svg xmlns="http://www.w3.org/2000/svg" width="179.328" height="55.652" viewBox="0 0 179.328 55.652">
  <g id="logo" transform="translate(-1398.298 -1083.589)">
    <rect id="Rectangle_7" data-name="Rectangle 7" width="6.949" height="36.46" transform="translate(1430.275 1086.054)" fill="#fff"/>
    <path id="Path_1" data-name="Path 1" d="M1426.036,1091.215a8.853,8.853,0,0,0-3.5-4.389,10.52,10.52,0,0,0-5.911-1.627,11.728,11.728,0,0,0-6.206,1.676,11.318,11.318,0,0,0-4.319,4.853,18.752,18.752,0,0,0,0,14.929,11.311,11.311,0,0,0,4.319,4.852,11.66,11.66,0,0,0,6.206,1.677,10.321,10.321,0,0,0,5.911-1.655,8.981,8.981,0,0,0,3.5-4.4v5.715h6.893v-27.3h-6.893Zm-2.047,13.716a7.459,7.459,0,0,1-10.42.05,8.124,8.124,0,0,1-1.97-5.793,8.224,8.224,0,0,1,1.97-5.813,7.432,7.432,0,0,1,10.42.028,9.138,9.138,0,0,1,0,11.528Z" transform="translate(37.596 9.674)" fill="#fff"/>
    <path id="Path_2" data-name="Path 2" d="M1420.7,1111.584a3.862,3.862,0,0,1-.787-2.763V1096.9h6.109v-5.87h-6.109v-6.745h-6.949v6.745h-3.794v5.87h3.794v11.823q0,5.175,2.434,7.391c1.633,1.48,3.969,2.216,7.025,2.216h3.647v-5.96h-2.713A3.7,3.7,0,0,1,1420.7,1111.584Z" transform="translate(65.354 4.185)" fill="#fff"/>
    <path id="Path_3" data-name="Path 3" d="M1416.459,1083.589a4.482,4.482,0,0,0-3.1,1.059,3.5,3.5,0,0,0-1.185,2.735,3.434,3.434,0,0,0,1.185,2.685,5.075,5.075,0,0,0,6.206,0,3.45,3.45,0,0,0,1.178-2.685,3.514,3.514,0,0,0-1.178-2.735A4.512,4.512,0,0,0,1416.459,1083.589Z" transform="translate(83.434 0)" fill="#fff"/>
    <rect id="Rectangle_8" data-name="Rectangle 8" width="6.949" height="27.298" transform="translate(1496.394 1095.216)" fill="#fff"/>
    <path id="Path_4" data-name="Path 4" d="M1440.143,1106.635a16.157,16.157,0,0,0,0-14.908,12.243,12.243,0,0,0-5-4.853,16.177,16.177,0,0,0-14.34,0,12.237,12.237,0,0,0-5,4.853,16.147,16.147,0,0,0,0,14.908,12.512,12.512,0,0,0,5,4.853,16,16,0,0,0,14.34,0A12.518,12.518,0,0,0,1440.143,1106.635Zm-7.244-1.507a6.95,6.95,0,0,1-9.853,0,9.73,9.73,0,0,1,0-11.871,6.966,6.966,0,0,1,9.853,0,9.705,9.705,0,0,1,0,11.871Z" transform="translate(94.287 9.674)" fill="#fff"/>
    <path id="Path_5" data-name="Path 5" d="M1425.622,1098.394a7.843,7.843,0,0,1,1.775-5.519,6.155,6.155,0,0,1,4.733-1.922,5.972,5.972,0,0,1,4.579,1.8,7.153,7.153,0,0,1,1.675,5.055v15.077h6.9v-15.869q0-5.616-2.806-8.716a9.68,9.68,0,0,0-7.545-3.106,10.631,10.631,0,0,0-5.736,1.549,8.72,8.72,0,0,0-3.577,4.313v-5.47h-6.95v27.3h6.95Z" transform="translate(122.503 9.633)" fill="#fff"/>
    <path id="Path_6" data-name="Path 6" d="M1419.013,1086.874a14.358,14.358,0,0,0-7.068-1.676,14.709,14.709,0,0,0-7.09,1.676,11.756,11.756,0,0,0-4.831,4.853,16.966,16.966,0,0,0,0,14.908,12.013,12.013,0,0,0,4.831,4.853,14.559,14.559,0,0,0,7.09,1.7,14.709,14.709,0,0,0,6.185-1.276,12.094,12.094,0,0,0,4.558-3.548,11.921,11.921,0,0,0,1.746-3.148l-6.775-1.964a5.24,5.24,0,0,1-2.04,3.191,6.592,6.592,0,0,1-4.019,1.178,6.339,6.339,0,0,1-4.53-1.724c-1.22-1.151-1.872-2.848-1.97-5.274l20,.441a18.523,18.523,0,0,0,.246-2.9,13.367,13.367,0,0,0-1.648-6.676A11.758,11.758,0,0,0,1419.013,1086.874Zm-13.913,10.582a7.037,7.037,0,0,1,2.117-5.063,6.825,6.825,0,0,1,4.727-1.725,6.659,6.659,0,0,1,4.656,1.725,5.557,5.557,0,0,1,1.752,4.81Z" transform="translate(0 9.674)" fill="#fff"/>
    <path id="Path_7" data-name="Path 7" d="M1460,1088.97l-1.164,1.5c-4.117,5.329-15.9,16.416-36.338,4.208l-1.438-.863-3.787,7.5,1.283.737c.17.1,10.807,6.051,23.023,4.607,7.11-.835,14.761-4.18,21.2-12.636l.779-1.024Z" transform="translate(114.074 32.353)" fill="#390049"/>
  </g>
</svg>
