<svg xmlns="http://www.w3.org/2000/svg" width="51.315" height="52.529" viewBox="0 0 51.315 52.529">
  <g id="twitter" transform="translate(-1255.894 -7116.72)">
    <g id="Group_15792" data-name="Group 15792" transform="translate(0.104 -0.22)">
      <path id="Path_25419" data-name="Path 25419" d="M1094.017,1221.394c-10.274,2.561-17.417,4.342-24.362-11.736-4.2-9.721,4.811-22.909,15.086-25.47s21.785,8.127,24.347,18.4S1104.29,1218.831,1094.017,1221.394Z" transform="matrix(-0.259, 0.966, -0.966, -0.259, 2727.144, 6404.068)" fill="#0cce6b"/>
      <path id="Path_25420" data-name="Path 25420" d="M1094.017,1221.394c-10.274,2.561-17.417,4.342-24.362-11.736-4.2-9.721,4.811-22.909,15.086-25.47s21.785,8.127,24.347,18.4S1104.29,1218.831,1094.017,1221.394Z" transform="matrix(-0.259, 0.966, -0.966, -0.259, 2725.471, 6402.584)" fill="none" stroke="#0cce6b" stroke-width="2"/>
    </g>
    <text id="_" data-name="" transform="translate(1282 7151)" fill="#fff" font-size="20" font-family="FontAwesome5Brands-Regular, 'Font Awesome \35  Brands'" letter-spacing="0.015em"><tspan x="-10" y="0"></tspan></text>
  </g>
</svg>
