<svg xmlns="http://www.w3.org/2000/svg" xmlns:xlink="http://www.w3.org/1999/xlink" width="1600" height="624" viewBox="0 0 1600 624">
  <defs>
    <clipPath id="clip-path">
      <path id="Path_25130" data-name="Path 25130" d="M1600,0,0,34.727V593.258L1600,624Z" transform="translate(0 6387)" fill="#0cce6b"/>
    </clipPath>
  </defs>
  <g id="white-pattern" transform="translate(0 -6387)" clip-path="url(#clip-path)">
    <g id="Group_15800" data-name="Group 15800" transform="translate(-225 6061)">
      <path id="Path_274" data-name="Path 274" d="M3443.524-1093.319c20.209,18.257,75.055,53.932,147.63-9.285l5.117-4.46,20.451,27.149-4.6,3.858c-.6.507-38.659,31.8-88.308,34.816-28.915,1.756-61.744-6.073-93.409-35.13l-3.83-3.508,11.258-18.582Z" transform="translate(-3220.896 1767.83)" fill="#fff"/>
      <path id="Path_275" data-name="Path 275" d="M3759.737-1221.8l6.124-.585.738,30.8-5.424.416c-.71.057-45.271,3.024-83.442-20.962-22.231-13.97-42.286-37.068-50.278-75.192l-.97-4.606,18.1-7.748,1.476,6.791C3651.317-1268.77,3672.9-1213.534,3759.737-1221.8Z" transform="translate(-3570.68 1767.83)" fill="#fff"/>
      <path id="Path_276" data-name="Path 276" d="M3601.087-1196.307l.865-7.955,18.288,5.638-.567,5.4c-2.526,24.7-12.9,44.372-30.828,58.444-25.826,20.3-58.454,21.49-58.752,21.5l-6.275.179-2.168-26.89,7.09-.07C3588.5-1140.647,3599.237-1179.59,3601.087-1196.307Z" transform="translate(-3319.486 1767.83)" fill="#fff"/>
      <path id="Path_277" data-name="Path 277" d="M3560.566-1289.343c-15.721,14.425-38.129,25.186-69.724,23.268l-3.818-.229-2.187-15.852,5.639.3c20.031,1.06,67.955-4,80.114-73.835l.856-4.926,24.3,6.033-.837,4.34C3594.8-1349.674,3587.558-1314.112,3560.566-1289.343Z" transform="translate(-3258.175 1767.83)" fill="#fff"/>
      <path id="Path_278" data-name="Path 278" d="M3671.589-1267.763c-17.513-8.632-29.167-21.669-34.657-38.744-7.717-24.116-.1-48.092.249-49.146l1.75-5.131,21.331,6.016-2.078,5.778c-15.643,43.408,9.626,61.646,21.211,67.463l6.186,3.1-9.786,12.739Z" transform="translate(-3496.667 1767.83)" fill="#fff"/>
      <path id="Path_279" data-name="Path 279" d="M3714.488-1144.087l-.253-6.629,15.09,2.3.215,4.5c.821,18.159-4.571,33.522-16.04,45.656-16.537,17.483-39.929,21.817-40.174,21.864l-5.124.9-4.738-20.4,5.813-.935C3711.461-1103.516,3714.945-1132.1,3714.488-1144.087Z" transform="translate(-3570.681 1767.83)" fill="#fff"/>
      <path id="Path_280" data-name="Path 280" d="M3096.885-1021.637c-15.721,14.426-38.128,25.187-69.723,23.269l-3.819-.229-2.187-15.852,5.639.3c20.031,1.061,67.955-4,80.114-73.834l.857-4.926,24.295,6.032-.837,4.341C3131.116-1081.968,3123.878-1046.405,3096.885-1021.637Z" transform="translate(-2330.813 1767.83)" fill="#fff"/>
      <path id="Path_281" data-name="Path 281" d="M3207.908-1000.057c-17.512-8.632-29.167-21.669-34.656-38.744-7.717-24.115-.1-48.091.248-49.145l1.75-5.132,21.331,6.017-2.078,5.778c-15.643,43.407,9.626,61.645,21.212,67.463l6.185,3.1-9.785,12.739Z" transform="translate(-2569.305 1767.83)" fill="#fff"/>
      <path id="Path_282" data-name="Path 282" d="M2967.34-1270.342a80.169,80.169,0,0,1-5.7,6.33c-11.043,11.022-24.171,17.254-39.129,18.568-25.57,2.24-47.011-10.811-47.222-10.938l-4.589-2.81,10.468-19.271,5.137,3.275c38.335,24.487,61.384,4.194,69.438-5.7l4.365-5.3,10.156,12.231Z" transform="translate(-2018.57 1767.83)" fill="#fff"/>
      <path id="Path_283" data-name="Path 283" d="M2832.375-1221.8l6.124-.585.738,30.8-5.424.416c-.711.057-45.271,3.024-83.443-20.962-22.23-13.97-42.285-37.068-50.278-75.192l-.97-4.606,18.1-7.748,1.476,6.791C2723.955-1268.77,2745.532-1213.534,2832.375-1221.8Z" transform="translate(-1715.955 1767.83)" fill="#fff"/>
      <path id="Path_284" data-name="Path 284" d="M2973.945-1105.581l7.068-.437-.2,26.976-6.241.277c-.318.013-32.936,1.2-60.183-17.16-18.908-12.737-30.686-31.589-35-56.042l-.959-5.354,17.828-6.956,1.443,7.871C2900.746-1139.867,2914.276-1101.8,2973.945-1105.581Z" transform="translate(-2037.031 1767.83)" fill="#fff"/>
      <path id="Path_285" data-name="Path 285" d="M2855.481-1152.8c-17.274-6.562-34.311-19.725-45.1-44.925l-1.307-3.044,11.42-7.853,1.959,4.481c6.963,15.917,29.5,51.045,88.281,33.317l4.145-1.251,4.773,21.15-3.685,1.038C2915.48-1149.752,2885.142-1141.535,2855.481-1152.8Z" transform="translate(-1906.314 1767.83)" fill="#fff"/>
      <path id="Path_286" data-name="Path 286" d="M2787.125-1144.087l-.253-6.629,15.089,2.3.215,4.5c.822,18.159-4.57,33.522-16.039,45.656-16.537,17.483-39.93,21.817-40.174,21.864l-5.124.9-4.738-20.4,5.813-.935C2784.1-1103.516,2787.581-1132.1,2787.125-1144.087Z" transform="translate(-1715.955 1767.83)" fill="#fff"/>
      <path id="Path_287" data-name="Path 287" d="M3443.524-1628.733c20.209,18.258,75.055,53.933,147.63-9.284l5.117-4.46,20.451,27.148-4.6,3.859c-.6.507-38.659,31.8-88.308,34.816-28.915,1.756-61.744-6.073-93.409-35.13l-3.83-3.509,11.258-18.581Z" transform="translate(-3220.896 1767.83)" fill="#fff"/>
      <path id="Path_288" data-name="Path 288" d="M3544.246-1528.8l21.715-.691-1.21,7.572c-4.291,26.894-4.3,92.322,88.256,118.708l6.529,1.859-11.613,31.944-5.74-1.75c-.753-.228-47.736-15.077-77.326-55.058-17.233-23.284-28.565-55.075-21.465-97.461Z" transform="translate(-3378.373 1767.83)" fill="#fff"/>
      <path id="Path_289" data-name="Path 289" d="M3472.269-1536.052l-3.013-5.151,16.01-14.181,4.495,7.578c10.024,16.915,40.246,53.233,104.109,25.03l7.14-3.152,10.313,28.729-6.345,2.675a135.724,135.724,0,0,1-46.55,8.384,108.444,108.444,0,0,1-25.736-2.984C3507.065-1495.409,3486.728-1511.2,3472.269-1536.052Z" transform="translate(-3258.175 1767.83)" fill="#fff"/>
      <path id="Path_290" data-name="Path 290" d="M3798.353-1492.36l-1.225-7.763,22.259.753.864,5.253c7.189,43.465-4.493,76.029-22.207,99.861-30.417,40.922-78.61,56.045-79.382,56.276l-5.888,1.783-11.837-32.77,6.7-1.893C3802.571-1397.712,3802.7-1464.781,3798.353-1492.36Z" transform="translate(-3700.937 1767.83)" fill="#fff"/>
      <path id="Path_291" data-name="Path 291" d="M3547.056-1429.543l4.858-1.06.286,11.436-3.294.751c-13.289,3-25.332,1.042-35.794-5.822-15.074-9.9-21.352-26.585-21.418-26.759l-1.34-3.662,14.422-6.18,1.455,4.165C3516.727-1426.435,3538.272-1427.628,3547.056-1429.543Z" transform="translate(-3220.15 1767.83)" fill="#fff"/>
      <path id="Path_292" data-name="Path 292" d="M3697.514-1590.946l-4.3-6.918-13.768,12.709,2.874,4.73c11.637,19.038,27.674,30.965,47.677,35.433,28.832,6.427,55.608-5.231,55.889-5.351l5.832-2.6-9.188-24-6.556,3.041C3728.459-1551.749,3705.284-1578.435,3697.514-1590.946Z" transform="translate(-3648.768 1767.83)" fill="#fff"/>
      <path id="Path_293" data-name="Path 293" d="M2979.844-1361.026c20.208,18.258,75.054,53.933,147.629-9.284l5.117-4.46,20.451,27.148-4.6,3.859c-.6.507-38.66,31.8-88.309,34.816-28.915,1.756-61.744-6.074-93.409-35.13l-3.83-3.509,11.259-18.582Z" transform="translate(-2293.534 1767.83)" fill="#fff"/>
      <path id="Path_294" data-name="Path 294" d="M3431.021-1538.049a80.2,80.2,0,0,1-5.7,6.331c-11.044,11.022-24.171,17.253-39.129,18.568-25.57,2.239-47.011-10.811-47.222-10.938l-4.589-2.81,10.468-19.272,5.137,3.275c38.335,24.487,61.384,4.194,69.438-5.7l4.364-5.3,10.157,12.231Z" transform="translate(-2945.932 1767.83)" fill="#fff"/>
      <path id="Path_295" data-name="Path 295" d="M3080.564-1261.095l21.716-.691-1.211,7.572c-4.29,26.894-4.3,92.322,88.257,118.707l6.528,1.859-11.612,31.944-5.741-1.75c-.752-.227-47.736-15.076-77.326-55.057-17.233-23.284-28.564-55.075-21.465-97.461Z" transform="translate(-2451.01 1767.83)" fill="#fff"/>
      <path id="Path_296" data-name="Path 296" d="M3296.056-1489.508l6.125-.584.737,30.8-5.424.417c-.71.057-45.271,3.024-83.442-20.963-22.231-13.97-42.285-37.068-50.278-75.191l-.97-4.607,18.1-7.748,1.477,6.791C3187.636-1536.477,3209.214-1481.24,3296.056-1489.508Z" transform="translate(-2643.318 1767.83)" fill="#fff"/>
      <path id="Path_297" data-name="Path 297" d="M3137.406-1464.013l.865-7.956,18.288,5.639-.567,5.4c-2.526,24.7-12.9,44.373-30.828,58.444-25.826,20.3-58.454,21.49-58.752,21.5l-6.275.179-2.168-26.89,7.091-.069C3124.816-1408.354,3135.556-1447.3,3137.406-1464.013Z" transform="translate(-2392.124 1767.83)" fill="#fff"/>
      <path id="Path_298" data-name="Path 298" d="M3008.588-1268.345l-3.013-5.152,16.011-14.18,4.5,7.577c10.024,16.916,40.245,53.233,104.109,25.031l7.14-3.153,10.312,28.73-6.344,2.675a135.777,135.777,0,0,1-46.55,8.383,108.456,108.456,0,0,1-25.737-2.983C3043.384-1227.7,3023.048-1243.494,3008.588-1268.345Z" transform="translate(-2330.813 1767.83)" fill="#fff"/>
      <path id="Path_299" data-name="Path 299" d="M3360.741-1315.955c26.512,52.219,65.365,44.671,80.8,39.033l7.419-2.715,3.013,18.6-5.012,1.879a89.457,89.457,0,0,1-31.415,6.007,76.7,76.7,0,0,1-33.364-7.647c-28.978-13.833-44.312-42-44.452-42.265l-2.9-5.479,22.753-13.654Z" transform="translate(-2964.394 1767.83)" fill="#fff"/>
      <path id="Path_300" data-name="Path 300" d="M3437.627-1373.288l7.068-.437-.2,26.977-6.242.276c-.318.014-32.936,1.2-60.182-17.159-18.909-12.738-30.686-31.59-35.005-56.042l-.96-5.354,17.829-6.957,1.442,7.872C3364.427-1407.574,3377.958-1369.506,3437.627-1373.288Z" transform="translate(-2964.394 1767.83)" fill="#fff"/>
      <path id="Path_301" data-name="Path 301" d="M3334.67-1216.233l6.4,4.456c57.221,39.976,93.9,10.193,106.983-4.485l5.857-6.574,12.988,17.015-3.948,4.465c-18.994,21.61-41.986,33.185-68.339,34.408-1.561.07-3.112.1-4.644.1-36.079,0-64.938-19.133-65.236-19.342l-5.718-3.849Z" transform="translate(-2963.515 1767.83)" fill="#fff"/>
      <path id="Path_302" data-name="Path 302" d="M3334.671-1224.653l-1.225-7.764,22.259.754.865,5.253c7.188,43.464-4.494,76.028-22.208,99.861-30.416,40.922-78.609,56.044-79.381,56.276l-5.888,1.782-11.837-32.77,6.7-1.892C3338.89-1130.006,3339.012-1197.075,3334.671-1224.653Z" transform="translate(-2773.573 1767.83)" fill="#fff"/>
      <path id="Path_303" data-name="Path 303" d="M3096.885-1557.05c-15.721,14.426-38.128,25.187-69.723,23.268l-3.819-.228-2.187-15.852,5.639.3c20.031,1.061,67.955-4,80.114-73.834l.857-4.927,24.295,6.033-.837,4.34C3131.116-1617.381,3123.878-1581.819,3096.885-1557.05Z" transform="translate(-2330.813 1767.83)" fill="#fff"/>
      <path id="Path_304" data-name="Path 304" d="M3207.908-1535.47c-17.512-8.632-29.167-21.669-34.656-38.744-7.717-24.115-.1-48.091.248-49.145l1.75-5.132,21.331,6.017-2.078,5.777c-15.643,43.408,9.626,61.646,21.212,67.464l6.185,3.1-9.785,12.738Z" transform="translate(-2569.305 1767.83)" fill="#fff"/>
      <path id="Path_305" data-name="Path 305" d="M3319.164-1420.509c-17.274-6.562-34.311-19.724-45.1-44.925l-1.307-3.044,11.42-7.853,1.959,4.482c6.964,15.916,29.5,51.044,88.281,33.316l4.145-1.251,4.773,21.15-3.685,1.038C3379.163-1417.458,3348.825-1409.241,3319.164-1420.509Z" transform="translate(-2833.678 1767.83)" fill="#fff"/>
      <path id="Path_306" data-name="Path 306" d="M3250.807-1411.793l-.254-6.629,15.09,2.305.215,4.5c.821,18.159-4.57,33.522-16.039,45.656-16.537,17.482-39.93,21.817-40.174,21.863l-5.124.9-4.738-20.4,5.812-.935C3247.78-1371.223,3251.263-1399.8,3250.807-1411.793Z" transform="translate(-2643.318 1767.83)" fill="#fff"/>
      <path id="Path_307" data-name="Path 307" d="M3474.309-1255.414l-3.554-3.476-6.312,9.54,2.393,2.385c9.672,9.593,20.917,14.328,33.426,14.064,18.03-.389,32.206-11.2,32.355-11.312l3.079-2.392-8.943-12.893-3.444,2.758C3498.364-1236.683,3480.738-1249.129,3474.309-1255.414Z" transform="translate(-3177.735 1767.83)" fill="#fff"/>
      <path id="Path_308" data-name="Path 308" d="M3083.376-1161.837l4.857-1.059.286,11.435-3.294.752c-13.288,3-25.332,1.041-35.793-5.822-15.075-9.9-21.352-26.586-21.419-26.76l-1.34-3.661,14.423-6.181,1.455,4.166C3053.047-1158.729,3074.591-1159.922,3083.376-1161.837Z" transform="translate(-2292.788 1767.83)" fill="#fff"/>
      <path id="Path_309" data-name="Path 309" d="M3233.832-1323.239l-4.295-6.919-13.769,12.71,2.874,4.729c11.637,19.039,27.675,30.966,47.677,35.433,28.833,6.428,55.609-5.23,55.89-5.35l5.832-2.6-9.188-24.005-6.556,3.042C3264.778-1284.042,3241.6-1310.728,3233.832-1323.239Z" transform="translate(-2721.405 1767.83)" fill="#fff"/>
      <path id="Path_310" data-name="Path 310" d="M2897.06-1583.661c26.513,52.218,65.366,44.67,80.8,39.032l7.418-2.715,3.013,18.6-5.012,1.88a89.467,89.467,0,0,1-31.414,6.006,76.685,76.685,0,0,1-33.364-7.647c-28.978-13.833-44.313-42-44.452-42.264l-2.9-5.48,22.753-13.653Z" transform="translate(-2037.032 1767.83)" fill="#fff"/>
      <path id="Path_311" data-name="Path 311" d="M2870.989-1483.939l6.4,4.455c57.221,39.977,93.9,10.193,106.983-4.485l5.858-6.573,12.987,17.015-3.948,4.465c-18.994,21.609-41.985,33.185-68.338,34.408-1.562.069-3.113.1-4.644.1-36.079,0-64.938-19.133-65.236-19.342l-5.719-3.848Z" transform="translate(-2036.153 1767.83)" fill="#fff"/>
      <path id="Path_312" data-name="Path 312" d="M2870.989-1492.36l-1.224-7.763,22.259.753.864,5.253c7.189,43.465-4.493,76.029-22.207,99.861-30.417,40.922-78.61,56.045-79.382,56.276l-5.888,1.783-11.837-32.77,6.7-1.893C2875.208-1397.712,2875.332-1464.781,2870.989-1492.36Z" transform="translate(-1846.211 1767.83)" fill="#fff"/>
      <path id="Path_313" data-name="Path 313" d="M3010.627-1523.121l-3.555-3.476-6.311,9.54,2.392,2.385c9.672,9.593,20.917,14.328,33.426,14.064,18.03-.388,32.207-11.2,32.356-11.311l3.079-2.392-8.944-12.893-3.443,2.757C3034.681-1504.389,3017.056-1516.835,3010.627-1523.121Z" transform="translate(-2250.371 1767.83)" fill="#fff"/>
      <path id="Path_314" data-name="Path 314" d="M2770.151-1590.946l-4.3-6.918-13.768,12.709,2.874,4.73c11.637,19.038,27.674,30.965,47.677,35.433,28.832,6.427,55.608-5.231,55.889-5.351l5.832-2.6-9.188-24-6.556,3.041C2801.1-1551.749,2777.921-1578.435,2770.151-1590.946Z" transform="translate(-1794.042 1767.83)" fill="#fff"/>
      <path id="Path_315" data-name="Path 315" d="M3334.671-1760.066l-1.225-7.764,22.259.753.865,5.254c7.188,43.464-4.494,76.028-22.208,99.861-30.416,40.922-78.609,56.044-79.381,56.276l-5.888,1.782-11.837-32.77,6.7-1.892C3338.89-1665.419,3339.012-1732.488,3334.671-1760.066Z" transform="translate(-2773.573 1767.83)" fill="#fff"/>
      <path id="Path_316" data-name="Path 316" d="M3443.524-557.906c20.209,18.257,75.055,53.933,147.63-9.285l5.117-4.46,20.451,27.149-4.6,3.858c-.6.507-38.659,31.8-88.308,34.817-28.915,1.755-61.744-6.074-93.409-35.131l-3.83-3.508,11.258-18.582Z" transform="translate(-3220.896 1767.83)" fill="#fff"/>
      <path id="Path_317" data-name="Path 317" d="M3759.737-686.388l6.124-.585.738,30.8-5.424.417c-.71.056-45.271,3.024-83.442-20.963-22.231-13.97-42.286-37.068-50.278-75.191l-.97-4.607,18.1-7.748,1.476,6.791C3651.317-733.357,3672.9-678.12,3759.737-686.388Z" transform="translate(-3570.68 1767.83)" fill="#fff"/>
      <path id="Path_318" data-name="Path 318" d="M3601.087-660.894l.865-7.955,18.288,5.638-.567,5.4c-2.526,24.7-12.9,44.373-30.828,58.444-25.826,20.3-58.454,21.49-58.752,21.5l-6.275.179-2.168-26.89,7.09-.069C3588.5-605.234,3599.237-644.177,3601.087-660.894Z" transform="translate(-3319.486 1767.83)" fill="#fff"/>
      <path id="Path_319" data-name="Path 319" d="M3560.566-753.93c-15.721,14.426-38.129,25.186-69.724,23.268l-3.818-.229-2.187-15.852,5.639.3c20.031,1.06,67.955-4,80.114-73.835l.856-4.926,24.3,6.033-.837,4.34C3594.8-814.261,3587.558-778.7,3560.566-753.93Z" transform="translate(-3258.175 1767.83)" fill="#fff"/>
      <path id="Path_320" data-name="Path 320" d="M3671.589-732.35c-17.513-8.632-29.167-21.669-34.657-38.744-7.717-24.115-.1-48.092.249-49.146l1.75-5.131,21.331,6.016-2.078,5.778c-15.643,43.408,9.626,61.646,21.211,67.464l6.186,3.1-9.786,12.739Z" transform="translate(-3496.667 1767.83)" fill="#fff"/>
      <path id="Path_321" data-name="Path 321" d="M3714.488-608.673l-.253-6.63,15.09,2.306.215,4.5c.821,18.159-4.571,33.522-16.04,45.656-16.537,17.482-39.929,21.816-40.174,21.863l-5.124.9-4.738-20.4,5.813-.935C3711.461-568.1,3714.945-596.684,3714.488-608.673Z" transform="translate(-3570.681 1767.83)" fill="#fff"/>
      <path id="Path_322" data-name="Path 322" d="M3096.885-486.224c-15.721,14.426-38.128,25.187-69.723,23.269l-3.819-.229-2.187-15.852,5.639.3c20.031,1.06,67.955-4,80.114-73.835l.857-4.926,24.295,6.032-.837,4.341C3131.116-546.554,3123.878-510.992,3096.885-486.224Z" transform="translate(-2330.813 1767.83)" fill="#fff"/>
      <path id="Path_323" data-name="Path 323" d="M3207.908-464.644c-17.512-8.631-29.167-21.669-34.656-38.743-7.717-24.116-.1-48.092.248-49.146l1.75-5.131,21.331,6.016-2.078,5.778c-15.643,43.407,9.626,61.646,21.212,67.463l6.185,3.1-9.785,12.739Z" transform="translate(-2569.305 1767.83)" fill="#fff"/>
      <path id="Path_324" data-name="Path 324" d="M2967.34-734.929a80,80,0,0,1-5.7,6.33c-11.043,11.023-24.171,17.254-39.129,18.569-25.57,2.239-47.011-10.812-47.222-10.938l-4.589-2.811,10.468-19.271,5.137,3.275c38.335,24.487,61.384,4.194,69.438-5.7l4.365-5.3,10.156,12.232Z" transform="translate(-2018.57 1767.83)" fill="#fff"/>
      <path id="Path_325" data-name="Path 325" d="M2832.375-686.388l6.124-.585.738,30.8-5.424.417c-.711.056-45.271,3.024-83.443-20.963-22.23-13.97-42.285-37.068-50.278-75.191l-.97-4.607,18.1-7.748,1.476,6.791C2723.955-733.357,2745.532-678.12,2832.375-686.388Z" transform="translate(-1715.955 1767.83)" fill="#fff"/>
      <path id="Path_326" data-name="Path 326" d="M2973.945-570.168l7.068-.437-.2,26.977-6.241.276c-.318.013-32.936,1.2-60.183-17.16-18.908-12.737-30.686-31.589-35-56.041l-.959-5.355,17.828-6.956,1.443,7.872C2900.746-604.454,2914.276-566.386,2973.945-570.168Z" transform="translate(-2037.031 1767.83)" fill="#fff"/>
      <path id="Path_327" data-name="Path 327" d="M2855.481-617.389c-17.274-6.562-34.311-19.724-45.1-44.925l-1.307-3.044,11.42-7.853,1.959,4.482c6.963,15.916,29.5,51.044,88.281,33.316l4.145-1.251,4.773,21.15-3.685,1.038C2915.48-614.339,2885.142-606.121,2855.481-617.389Z" transform="translate(-1906.314 1767.83)" fill="#fff"/>
      <path id="Path_328" data-name="Path 328" d="M2787.125-608.673l-.253-6.63L2801.961-613l.215,4.5c.822,18.159-4.57,33.522-16.039,45.656-16.537,17.482-39.93,21.816-40.174,21.863l-5.124.9-4.738-20.4,5.813-.935C2784.1-568.1,2787.581-596.684,2787.125-608.673Z" transform="translate(-1715.955 1767.83)" fill="#fff"/>
      <path id="Path_329" data-name="Path 329" d="M3443.524-1093.319c20.209,18.257,75.055,53.932,147.63-9.285l5.117-4.46,20.451,27.149-4.6,3.858c-.6.507-38.659,31.8-88.308,34.816-28.915,1.756-61.744-6.073-93.409-35.13l-3.83-3.508,11.258-18.582Z" transform="translate(-3220.896 1767.83)" fill="#fff"/>
      <path id="Path_330" data-name="Path 330" d="M3544.246-993.389l21.715-.69-1.21,7.571c-4.291,26.894-4.3,92.322,88.256,118.708l6.529,1.859L3647.923-834l-5.74-1.75c-.753-.228-47.736-15.077-77.326-55.057-17.233-23.285-28.565-55.076-21.465-97.462Z" transform="translate(-3378.373 1767.83)" fill="#fff"/>
      <path id="Path_331" data-name="Path 331" d="M3472.269-1000.639l-3.013-5.151,16.01-14.181,4.495,7.578c10.024,16.915,40.246,53.233,104.109,25.03l7.14-3.152,10.313,28.729-6.345,2.676a135.769,135.769,0,0,1-46.55,8.383,108.447,108.447,0,0,1-25.736-2.984C3507.065-960,3486.728-975.787,3472.269-1000.639Z" transform="translate(-3258.175 1767.83)" fill="#fff"/>
      <path id="Path_332" data-name="Path 332" d="M3798.353-956.946l-1.225-7.764,22.259.753.864,5.254c7.189,43.464-4.493,76.028-22.207,99.861-30.417,40.921-78.61,56.044-79.382,56.275l-5.888,1.783-11.837-32.77,6.7-1.892C3802.571-862.3,3802.7-929.368,3798.353-956.946Z" transform="translate(-3700.937 1767.83)" fill="#fff"/>
      <path id="Path_333" data-name="Path 333" d="M3547.056-894.13l4.858-1.06.286,11.436-3.294.751c-13.289,3-25.332,1.042-35.794-5.822-15.074-9.9-21.352-26.585-21.418-26.759l-1.34-3.661,14.422-6.181,1.455,4.165C3516.727-891.022,3538.272-892.215,3547.056-894.13Z" transform="translate(-3220.15 1767.83)" fill="#fff"/>
      <path id="Path_334" data-name="Path 334" d="M3697.514-1055.532l-4.3-6.919-13.768,12.71,2.874,4.729c11.637,19.039,27.674,30.965,47.677,35.433,28.832,6.427,55.608-5.23,55.889-5.351l5.832-2.6-9.188-24-6.556,3.041C3728.459-1016.336,3705.284-1043.022,3697.514-1055.532Z" transform="translate(-3648.768 1767.83)" fill="#fff"/>
      <path id="Path_335" data-name="Path 335" d="M2979.844-825.613c20.208,18.258,75.054,53.933,147.629-9.284l5.117-4.46,20.451,27.148-4.6,3.859c-.6.507-38.66,31.8-88.309,34.816-28.915,1.756-61.744-6.074-93.409-35.13l-3.83-3.509,11.259-18.582Z" transform="translate(-2293.534 1767.83)" fill="#fff"/>
      <path id="Path_336" data-name="Path 336" d="M3431.021-1002.635a80.361,80.361,0,0,1-5.7,6.33c-11.044,11.022-24.171,17.253-39.129,18.568-25.57,2.239-47.011-10.811-47.222-10.938l-4.589-2.81,10.468-19.271,5.137,3.274c38.335,24.487,61.384,4.2,69.438-5.7l4.364-5.3,10.157,12.231Z" transform="translate(-2945.932 1767.83)" fill="#fff"/>
      <path id="Path_337" data-name="Path 337" d="M3080.564-725.682l21.716-.691-1.211,7.572c-4.29,26.894-4.3,92.322,88.257,118.707l6.528,1.859-11.612,31.945-5.741-1.751c-.752-.227-47.736-15.076-77.326-55.057-17.233-23.284-28.564-55.075-21.465-97.461Z" transform="translate(-2451.01 1767.83)" fill="#fff"/>
      <path id="Path_338" data-name="Path 338" d="M3296.056-954.095l6.125-.584.737,30.8-5.424.416c-.71.057-45.271,3.024-83.442-20.963-22.231-13.97-42.285-37.068-50.278-75.191l-.97-4.606,18.1-7.748,1.477,6.79C3187.636-1001.063,3209.214-945.827,3296.056-954.095Z" transform="translate(-2643.318 1767.83)" fill="#fff"/>
      <path id="Path_339" data-name="Path 339" d="M3137.406-928.6l.865-7.956,18.288,5.639-.567,5.4c-2.526,24.7-12.9,44.372-30.828,58.443-25.826,20.3-58.454,21.491-58.752,21.5l-6.275.179-2.168-26.889,7.091-.07C3124.816-872.941,3135.556-911.883,3137.406-928.6Z" transform="translate(-2392.124 1767.83)" fill="#fff"/>
      <path id="Path_340" data-name="Path 340" d="M3008.588-732.932l-3.013-5.151,16.011-14.181,4.5,7.577c10.024,16.916,40.245,53.233,104.109,25.031l7.14-3.153,10.312,28.73L3141.3-691.4a135.751,135.751,0,0,1-46.55,8.383A108.453,108.453,0,0,1,3069.011-686C3043.384-692.289,3023.048-708.081,3008.588-732.932Z" transform="translate(-2330.813 1767.83)" fill="#fff"/>
      <path id="Path_341" data-name="Path 341" d="M3360.741-780.541c26.512,52.218,65.365,44.67,80.8,39.032l7.419-2.715,3.013,18.6-5.012,1.88a89.477,89.477,0,0,1-31.415,6.006,76.7,76.7,0,0,1-33.364-7.647c-28.978-13.833-44.312-42-44.452-42.264l-2.9-5.48,22.753-13.654Z" transform="translate(-2964.394 1767.83)" fill="#fff"/>
      <path id="Path_342" data-name="Path 342" d="M3437.627-837.875l7.068-.436-.2,26.976-6.242.277c-.318.013-32.936,1.2-60.182-17.16-18.909-12.737-30.686-31.59-35.005-56.042l-.96-5.354,17.829-6.956,1.442,7.871C3364.427-872.161,3377.958-834.093,3437.627-837.875Z" transform="translate(-2964.394 1767.83)" fill="#fff"/>
      <path id="Path_343" data-name="Path 343" d="M3334.67-680.819l6.4,4.455c57.221,39.977,93.9,10.193,106.983-4.485l5.857-6.574,12.988,17.015-3.948,4.466c-18.994,21.609-41.986,33.184-68.339,34.408-1.561.069-3.112.1-4.644.1-36.079,0-64.938-19.133-65.236-19.342l-5.718-3.849Z" transform="translate(-2963.515 1767.83)" fill="#fff"/>
      <path id="Path_344" data-name="Path 344" d="M3334.671-689.24,3333.446-697l22.259.754.865,5.253c7.188,43.464-4.494,76.028-22.208,99.861-30.416,40.922-78.609,56.044-79.381,56.276l-5.888,1.782-11.837-32.77,6.7-1.892C3338.89-594.593,3339.012-661.662,3334.671-689.24Z" transform="translate(-2773.573 1767.83)" fill="#fff"/>
      <path id="Path_345" data-name="Path 345" d="M3096.885-1021.637c-15.721,14.426-38.128,25.187-69.723,23.269l-3.819-.229-2.187-15.852,5.639.3c20.031,1.061,67.955-4,80.114-73.834l.857-4.926,24.295,6.032-.837,4.341C3131.116-1081.968,3123.878-1046.405,3096.885-1021.637Z" transform="translate(-2330.813 1767.83)" fill="#fff"/>
      <path id="Path_346" data-name="Path 346" d="M3207.908-1000.057c-17.512-8.632-29.167-21.669-34.656-38.744-7.717-24.115-.1-48.091.248-49.145l1.75-5.132,21.331,6.017-2.078,5.778c-15.643,43.407,9.626,61.645,21.212,67.463l6.185,3.1-9.785,12.739Z" transform="translate(-2569.305 1767.83)" fill="#fff"/>
      <path id="Path_347" data-name="Path 347" d="M3319.164-885.1c-17.274-6.562-34.311-19.724-45.1-44.925l-1.307-3.044,11.42-7.853,1.959,4.482c6.964,15.916,29.5,51.044,88.281,33.317l4.145-1.252,4.773,21.15-3.685,1.038C3379.163-882.045,3348.825-873.828,3319.164-885.1Z" transform="translate(-2833.678 1767.83)" fill="#fff"/>
      <path id="Path_348" data-name="Path 348" d="M3250.807-876.38l-.254-6.629,15.09,2.3.215,4.5c.821,18.159-4.57,33.522-16.039,45.656-16.537,17.482-39.93,21.817-40.174,21.864l-5.124.9-4.738-20.395,5.812-.935C3247.78-835.809,3251.263-864.391,3250.807-876.38Z" transform="translate(-2643.318 1767.83)" fill="#fff"/>
      <path id="Path_349" data-name="Path 349" d="M3474.309-720l-3.554-3.476-6.312,9.54,2.393,2.385c9.672,9.593,20.917,14.328,33.426,14.064,18.03-.388,32.206-11.2,32.355-11.312l3.079-2.392-8.943-12.893-3.444,2.758C3498.364-701.269,3480.738-713.715,3474.309-720Z" transform="translate(-3177.735 1767.83)" fill="#fff"/>
      <path id="Path_350" data-name="Path 350" d="M3083.376-626.424l4.857-1.059.286,11.435-3.294.752c-13.288,3-25.332,1.042-35.793-5.822-15.075-9.9-21.352-26.585-21.419-26.759l-1.34-3.662,14.423-6.18,1.455,4.165C3053.047-623.315,3074.591-624.509,3083.376-626.424Z" transform="translate(-2292.788 1767.83)" fill="#fff"/>
      <path id="Path_351" data-name="Path 351" d="M3233.832-787.826l-4.295-6.918-13.769,12.709,2.874,4.729c11.637,19.039,27.675,30.966,47.677,35.433,28.833,6.428,55.609-5.23,55.89-5.35l5.832-2.6-9.188-24-6.556,3.041C3264.778-748.629,3241.6-775.315,3233.832-787.826Z" transform="translate(-2721.405 1767.83)" fill="#fff"/>
      <path id="Path_352" data-name="Path 352" d="M2897.06-1048.248c26.513,52.219,65.366,44.671,80.8,39.032l7.418-2.715,3.013,18.6-5.012,1.879a89.449,89.449,0,0,1-31.414,6.007A76.687,76.687,0,0,1,2918.5-993.1c-28.978-13.833-44.313-41.995-44.452-42.264l-2.9-5.479,22.753-13.654Z" transform="translate(-2037.032 1767.83)" fill="#fff"/>
      <path id="Path_353" data-name="Path 353" d="M2870.989-948.526l6.4,4.455c57.221,39.977,93.9,10.193,106.983-4.485l5.858-6.573,12.987,17.015-3.948,4.465c-18.994,21.609-41.985,33.185-68.338,34.408-1.562.07-3.113.1-4.644.1-36.079,0-64.938-19.133-65.236-19.342l-5.719-3.848Z" transform="translate(-2036.153 1767.83)" fill="#fff"/>
      <path id="Path_354" data-name="Path 354" d="M2870.989-956.946l-1.224-7.764,22.259.753.864,5.254c7.189,43.464-4.493,76.028-22.207,99.861-30.417,40.921-78.61,56.044-79.382,56.275l-5.888,1.783-11.837-32.77,6.7-1.892C2875.208-862.3,2875.332-929.368,2870.989-956.946Z" transform="translate(-1846.211 1767.83)" fill="#fff"/>
      <path id="Path_355" data-name="Path 355" d="M3010.627-987.707l-3.555-3.477-6.311,9.541,2.392,2.385c9.672,9.592,20.917,14.328,33.426,14.063,18.03-.388,32.207-11.2,32.356-11.311l3.079-2.392-8.944-12.893-3.443,2.758C3034.681-968.976,3017.056-981.422,3010.627-987.707Z" transform="translate(-2250.371 1767.83)" fill="#fff"/>
      <path id="Path_356" data-name="Path 356" d="M2770.151-1055.532l-4.3-6.919-13.768,12.71,2.874,4.729c11.637,19.039,27.674,30.965,47.677,35.433,28.832,6.427,55.608-5.23,55.889-5.351l5.832-2.6-9.188-24-6.556,3.041C2801.1-1016.336,2777.921-1043.022,2770.151-1055.532Z" transform="translate(-1794.042 1767.83)" fill="#fff"/>
      <path id="Path_357" data-name="Path 357" d="M3334.671-1224.653l-1.225-7.764,22.259.754.865,5.253c7.188,43.464-4.494,76.028-22.208,99.861-30.416,40.922-78.609,56.044-79.381,56.276l-5.888,1.782-11.837-32.77,6.7-1.892C3338.89-1130.006,3339.012-1197.075,3334.671-1224.653Z" transform="translate(-2773.573 1767.83)" fill="#fff"/>
      <path id="Path_358" data-name="Path 358" d="M3443.524-22.493c20.209,18.258,75.055,53.933,147.63-9.284l5.117-4.461,20.451,27.149-4.6,3.858c-.6.508-38.659,31.8-88.308,34.817-28.915,1.756-61.744-6.074-93.409-35.13l-3.83-3.509,11.258-18.582Z" transform="translate(-3220.896 1767.83)" fill="#fff"/>
      <path id="Path_359" data-name="Path 359" d="M3759.737-150.975l6.124-.584.738,30.8-5.424.417c-.71.057-45.271,3.024-83.442-20.963-22.231-13.97-42.286-37.068-50.278-75.191l-.97-4.607,18.1-7.748,1.476,6.791C3651.317-197.944,3672.9-142.707,3759.737-150.975Z" transform="translate(-3570.68 1767.83)" fill="#fff"/>
      <path id="Path_360" data-name="Path 360" d="M3601.087-125.48l.865-7.956,18.288,5.639-.567,5.4c-2.526,24.7-12.9,44.373-30.828,58.444-25.826,20.3-58.454,21.49-58.752,21.5l-6.275.179-2.168-26.89,7.09-.069C3588.5-69.821,3599.237-108.764,3601.087-125.48Z" transform="translate(-3319.486 1767.83)" fill="#fff"/>
      <path id="Path_361" data-name="Path 361" d="M3560.566-218.517c-15.721,14.426-38.129,25.187-69.724,23.268l-3.818-.228-2.187-15.852,5.639.3c20.031,1.06,67.955-4,80.114-73.834l.856-4.927,24.3,6.033-.837,4.34C3594.8-278.848,3587.558-243.286,3560.566-218.517Z" transform="translate(-3258.175 1767.83)" fill="#fff"/>
      <path id="Path_362" data-name="Path 362" d="M3671.589-196.937c-17.513-8.632-29.167-21.669-34.657-38.744-7.717-24.115-.1-48.091.249-49.146l1.75-5.131,21.331,6.017-2.078,5.777c-15.643,43.408,9.626,61.646,21.211,67.464l6.186,3.1-9.786,12.739Z" transform="translate(-3496.667 1767.83)" fill="#fff"/>
      <path id="Path_363" data-name="Path 363" d="M3714.488-73.26l-.253-6.63,15.09,2.306.215,4.5c.821,18.159-4.571,33.522-16.04,45.656-16.537,17.482-39.929,21.817-40.174,21.863l-5.124.9-4.738-20.4,5.813-.935C3711.461-32.69,3714.945-61.271,3714.488-73.26Z" transform="translate(-3570.681 1767.83)" fill="#fff"/>
      <path id="Path_364" data-name="Path 364" d="M3096.885,49.19c-15.721,14.425-38.128,25.186-69.723,23.268l-3.819-.229-2.187-15.852,5.639.3c20.031,1.06,67.955-4,80.114-73.835l.857-4.926,24.295,6.033-.837,4.34C3131.116-11.141,3123.878,24.421,3096.885,49.19Z" transform="translate(-2330.813 1767.83)" fill="#fff"/>
      <path id="Path_365" data-name="Path 365" d="M3207.908,70.77c-17.512-8.632-29.167-21.669-34.656-38.744-7.717-24.116-.1-48.092.248-49.146l1.75-5.131,21.331,6.016-2.078,5.778c-15.643,43.408,9.626,61.646,21.212,67.463l6.185,3.1-9.785,12.739Z" transform="translate(-2569.305 1767.83)" fill="#fff"/>
      <path id="Path_366" data-name="Path 366" d="M2967.34-199.516a79.814,79.814,0,0,1-5.7,6.33c-11.043,11.023-24.171,17.254-39.129,18.569-25.57,2.239-47.011-10.812-47.222-10.938l-4.589-2.81,10.468-19.272,5.137,3.275c38.335,24.487,61.384,4.194,69.438-5.7l4.365-5.3,10.156,12.231Z" transform="translate(-2018.57 1767.83)" fill="#fff"/>
      <path id="Path_367" data-name="Path 367" d="M2832.375-150.975l6.124-.584.738,30.8-5.424.417c-.711.057-45.271,3.024-83.443-20.963-22.23-13.97-42.285-37.068-50.278-75.191l-.97-4.607,18.1-7.748,1.476,6.791C2723.955-197.944,2745.532-142.707,2832.375-150.975Z" transform="translate(-1715.955 1767.83)" fill="#fff"/>
      <path id="Path_368" data-name="Path 368" d="M2973.945-34.755l7.068-.437-.2,26.977-6.241.276c-.318.014-32.936,1.2-60.183-17.159-18.908-12.738-30.686-31.59-35-56.042l-.959-5.354,17.828-6.957,1.443,7.872C2900.746-69.041,2914.276-30.973,2973.945-34.755Z" transform="translate(-2037.031 1767.83)" fill="#fff"/>
      <path id="Path_369" data-name="Path 369" d="M2855.481-81.976c-17.274-6.562-34.311-19.724-45.1-44.925l-1.307-3.044,11.42-7.853,1.959,4.482c6.963,15.916,29.5,51.044,88.281,33.316l4.145-1.251,4.773,21.15-3.685,1.038C2915.48-78.925,2885.142-70.708,2855.481-81.976Z" transform="translate(-1906.314 1767.83)" fill="#fff"/>
      <path id="Path_370" data-name="Path 370" d="M2787.125-73.26l-.253-6.63,15.089,2.306.215,4.5c.822,18.159-4.57,33.522-16.039,45.656-16.537,17.482-39.93,21.817-40.174,21.863l-5.124.9-4.738-20.4,5.813-.935C2784.1-32.69,2787.581-61.271,2787.125-73.26Z" transform="translate(-1715.955 1767.83)" fill="#fff"/>
      <path id="Path_371" data-name="Path 371" d="M3443.524-557.906c20.209,18.257,75.055,53.933,147.63-9.285l5.117-4.46,20.451,27.149-4.6,3.858c-.6.507-38.659,31.8-88.308,34.817-28.915,1.755-61.744-6.074-93.409-35.131l-3.83-3.508,11.258-18.582Z" transform="translate(-3220.896 1767.83)" fill="#fff"/>
      <path id="Path_372" data-name="Path 372" d="M3544.246-457.976l21.715-.69-1.21,7.571c-4.291,26.895-4.3,92.323,88.256,118.708l6.529,1.859-11.613,31.944-5.74-1.75c-.753-.228-47.736-15.077-77.326-55.057-17.233-23.285-28.565-55.075-21.465-97.461Z" transform="translate(-3378.373 1767.83)" fill="#fff"/>
      <path id="Path_373" data-name="Path 373" d="M3472.269-465.226l-3.013-5.151,16.01-14.181,4.495,7.578c10.024,16.916,40.246,53.233,104.109,25.03l7.14-3.152,10.313,28.73-6.345,2.675a135.77,135.77,0,0,1-46.55,8.383,108.446,108.446,0,0,1-25.736-2.983C3507.065-424.582,3486.728-440.374,3472.269-465.226Z" transform="translate(-3258.175 1767.83)" fill="#fff"/>
      <path id="Path_374" data-name="Path 374" d="M3798.353-421.533l-1.225-7.764,22.259.753.864,5.254c7.189,43.464-4.493,76.028-22.207,99.861-30.417,40.921-78.61,56.044-79.382,56.276l-5.888,1.782-11.837-32.77,6.7-1.892C3802.571-326.886,3802.7-393.955,3798.353-421.533Z" transform="translate(-3700.937 1767.83)" fill="#fff"/>
      <path id="Path_375" data-name="Path 375" d="M3547.056-358.717l4.858-1.06.286,11.436-3.294.751c-13.289,3-25.332,1.042-35.794-5.821-15.074-9.9-21.352-26.586-21.418-26.76l-1.34-3.661,14.422-6.181,1.455,4.165C3516.727-355.609,3538.272-356.8,3547.056-358.717Z" transform="translate(-3220.15 1767.83)" fill="#fff"/>
      <path id="Path_376" data-name="Path 376" d="M3697.514-520.119l-4.3-6.919-13.768,12.71,2.874,4.729C3693.961-490.56,3710-478.634,3730-474.166c28.832,6.428,55.608-5.23,55.889-5.35l5.832-2.6-9.188-24-6.556,3.041C3728.459-480.923,3705.284-507.608,3697.514-520.119Z" transform="translate(-3648.768 1767.83)" fill="#fff"/>
      <path id="Path_377" data-name="Path 377" d="M2979.844-290.2c20.208,18.258,75.054,53.933,147.629-9.284l5.117-4.46,20.451,27.148-4.6,3.859c-.6.507-38.66,31.8-88.309,34.816-28.915,1.756-61.744-6.073-93.409-35.13l-3.83-3.509,11.259-18.581Z" transform="translate(-2293.534 1767.83)" fill="#fff"/>
      <path id="Path_378" data-name="Path 378" d="M3431.021-467.222a80.361,80.361,0,0,1-5.7,6.33c-11.044,11.022-24.171,17.254-39.129,18.568-25.57,2.24-47.011-10.811-47.222-10.938l-4.589-2.81,10.468-19.271,5.137,3.275c38.335,24.486,61.384,4.194,69.438-5.7l4.364-5.3,10.157,12.231Z" transform="translate(-2945.932 1767.83)" fill="#fff"/>
      <path id="Path_379" data-name="Path 379" d="M3080.564-190.269l21.716-.691-1.211,7.572c-4.29,26.894-4.3,92.322,88.257,118.707l6.528,1.859-11.612,31.945-5.741-1.751c-.752-.227-47.736-15.076-77.326-55.057-17.233-23.284-28.564-55.075-21.465-97.461Z" transform="translate(-2451.01 1767.83)" fill="#fff"/>
      <path id="Path_380" data-name="Path 380" d="M3296.056-418.681l6.125-.585.737,30.8-5.424.416c-.71.057-45.271,3.024-83.442-20.963-22.231-13.97-42.285-37.067-50.278-75.191l-.97-4.606,18.1-7.748,1.477,6.791C3187.636-465.65,3209.214-410.414,3296.056-418.681Z" transform="translate(-2643.318 1767.83)" fill="#fff"/>
      <path id="Path_381" data-name="Path 381" d="M3137.406-393.187l.865-7.956,18.288,5.639-.567,5.4c-2.526,24.7-12.9,44.372-30.828,58.444-25.826,20.3-58.454,21.49-58.752,21.5l-6.275.179-2.168-26.89,7.091-.07C3124.816-337.528,3135.556-376.47,3137.406-393.187Z" transform="translate(-2392.124 1767.83)" fill="#fff"/>
      <path id="Path_382" data-name="Path 382" d="M3008.588-197.519l-3.013-5.151,16.011-14.181,4.5,7.578c10.024,16.915,40.245,53.233,104.109,25.03l7.14-3.152,10.312,28.729-6.344,2.675a135.737,135.737,0,0,1-46.55,8.384,108.456,108.456,0,0,1-25.737-2.984C3043.384-156.876,3023.048-172.668,3008.588-197.519Z" transform="translate(-2330.813 1767.83)" fill="#fff"/>
      <path id="Path_383" data-name="Path 383" d="M3360.741-245.128c26.512,52.218,65.365,44.67,80.8,39.032l7.419-2.715,3.013,18.6-5.012,1.88a89.476,89.476,0,0,1-31.415,6.006,76.7,76.7,0,0,1-33.364-7.647c-28.978-13.833-44.312-42-44.452-42.264l-2.9-5.48,22.753-13.653Z" transform="translate(-2964.394 1767.83)" fill="#fff"/>
      <path id="Path_384" data-name="Path 384" d="M3437.627-302.462l7.068-.436-.2,26.976-6.242.277c-.318.013-32.936,1.2-60.182-17.16-18.909-12.737-30.686-31.589-35.005-56.042l-.96-5.354,17.829-6.956,1.442,7.871C3364.427-336.748,3377.958-298.68,3437.627-302.462Z" transform="translate(-2964.394 1767.83)" fill="#fff"/>
      <path id="Path_385" data-name="Path 385" d="M3334.67-145.406l6.4,4.455c57.221,39.977,93.9,10.193,106.983-4.485l5.857-6.573,12.988,17.015-3.948,4.465c-18.994,21.609-41.986,33.185-68.339,34.408-1.561.069-3.112.1-4.644.1-36.079,0-64.938-19.133-65.236-19.342l-5.718-3.848Z" transform="translate(-2963.515 1767.83)" fill="#fff"/>
      <path id="Path_386" data-name="Path 386" d="M3334.671-153.827l-1.225-7.763,22.259.753.865,5.253c7.188,43.465-4.494,76.029-22.208,99.861C3303.946-14.8,3255.752.322,3254.98.553l-5.888,1.783-11.837-32.77,6.7-1.893C3338.89-59.179,3339.012-126.249,3334.671-153.827Z" transform="translate(-2773.573 1767.83)" fill="#fff"/>
      <path id="Path_387" data-name="Path 387" d="M3096.885-486.224c-15.721,14.426-38.128,25.187-69.723,23.269l-3.819-.229-2.187-15.852,5.639.3c20.031,1.06,67.955-4,80.114-73.835l.857-4.926,24.295,6.032-.837,4.341C3131.116-546.554,3123.878-510.992,3096.885-486.224Z" transform="translate(-2330.813 1767.83)" fill="#fff"/>
      <path id="Path_388" data-name="Path 388" d="M3207.908-464.644c-17.512-8.631-29.167-21.669-34.656-38.743-7.717-24.116-.1-48.092.248-49.146l1.75-5.131,21.331,6.016-2.078,5.778c-15.643,43.407,9.626,61.646,21.212,67.463l6.185,3.1-9.785,12.739Z" transform="translate(-2569.305 1767.83)" fill="#fff"/>
      <path id="Path_389" data-name="Path 389" d="M3319.164-349.682c-17.274-6.563-34.311-19.725-45.1-44.925l-1.307-3.045,11.42-7.853,1.959,4.482c6.964,15.916,29.5,51.045,88.281,33.317l4.145-1.251,4.773,21.15-3.685,1.038C3379.163-346.632,3348.825-338.415,3319.164-349.682Z" transform="translate(-2833.678 1767.83)" fill="#fff"/>
      <path id="Path_390" data-name="Path 390" d="M3250.807-340.967l-.254-6.629,15.09,2.305.215,4.5c.821,18.159-4.57,33.522-16.039,45.656-16.537,17.483-39.93,21.817-40.174,21.864l-5.124.9-4.738-20.395,5.812-.935C3247.78-300.4,3251.263-328.978,3250.807-340.967Z" transform="translate(-2643.318 1767.83)" fill="#fff"/>
      <path id="Path_391" data-name="Path 391" d="M3474.309-184.588l-3.554-3.476-6.312,9.54,2.393,2.385c9.672,9.593,20.917,14.328,33.426,14.064,18.03-.388,32.206-11.2,32.355-11.311l3.079-2.392-8.943-12.894-3.444,2.758C3498.364-165.856,3480.738-178.3,3474.309-184.588Z" transform="translate(-3177.735 1767.83)" fill="#fff"/>
      <path id="Path_392" data-name="Path 392" d="M3083.376-91.01l4.857-1.06.286,11.435-3.294.752c-13.288,3-25.332,1.042-35.793-5.822-15.075-9.9-21.352-26.585-21.419-26.759l-1.34-3.662,14.423-6.18,1.455,4.165C3053.047-87.9,3074.591-89.1,3083.376-91.01Z" transform="translate(-2292.788 1767.83)" fill="#fff"/>
      <path id="Path_393" data-name="Path 393" d="M3233.832-252.413l-4.295-6.918-13.769,12.709,2.874,4.729c11.637,19.039,27.675,30.966,47.677,35.433,28.833,6.428,55.609-5.23,55.89-5.35l5.832-2.6-9.188-24-6.556,3.041C3264.778-213.216,3241.6-239.9,3233.832-252.413Z" transform="translate(-2721.405 1767.83)" fill="#fff"/>
      <path id="Path_394" data-name="Path 394" d="M2897.06-512.835c26.513,52.219,65.366,44.671,80.8,39.032l7.418-2.715,3.013,18.6-5.012,1.879a89.449,89.449,0,0,1-31.414,6.007,76.687,76.687,0,0,1-33.364-7.648c-28.978-13.832-44.313-41.995-44.452-42.264l-2.9-5.479L2893.9-519.08Z" transform="translate(-2037.032 1767.83)" fill="#fff"/>
      <path id="Path_395" data-name="Path 395" d="M2870.989-413.113l6.4,4.455c57.221,39.977,93.9,10.193,106.983-4.485l5.858-6.573,12.987,17.015-3.948,4.465c-18.994,21.61-41.985,33.185-68.338,34.408-1.562.07-3.113.1-4.644.1-36.079,0-64.938-19.134-65.236-19.343l-5.719-3.848Z" transform="translate(-2036.153 1767.83)" fill="#fff"/>
      <path id="Path_396" data-name="Path 396" d="M2870.989-421.533l-1.224-7.764,22.259.753.864,5.254c7.189,43.464-4.493,76.028-22.207,99.861-30.417,40.921-78.61,56.044-79.382,56.276l-5.888,1.782-11.837-32.77,6.7-1.892C2875.208-326.886,2875.332-393.955,2870.989-421.533Z" transform="translate(-1846.211 1767.83)" fill="#fff"/>
      <path id="Path_397" data-name="Path 397" d="M3010.627-452.294l-3.555-3.476-6.311,9.54,2.392,2.385c9.672,9.593,20.917,14.328,33.426,14.063,18.03-.388,32.207-11.2,32.356-11.311l3.079-2.392-8.944-12.893-3.443,2.758C3034.681-433.563,3017.056-446.009,3010.627-452.294Z" transform="translate(-2250.371 1767.83)" fill="#fff"/>
      <path id="Path_398" data-name="Path 398" d="M2770.151-520.119l-4.3-6.919-13.768,12.71,2.874,4.729c11.637,19.039,27.674,30.965,47.677,35.433,28.832,6.428,55.608-5.23,55.889-5.35l5.832-2.6-9.188-24-6.556,3.041C2801.1-480.923,2777.921-507.608,2770.151-520.119Z" transform="translate(-1794.042 1767.83)" fill="#fff"/>
      <path id="Path_399" data-name="Path 399" d="M3334.671-689.24,3333.446-697l22.259.754.865,5.253c7.188,43.464-4.494,76.028-22.208,99.861-30.416,40.922-78.609,56.044-79.381,56.276l-5.888,1.782-11.837-32.77,6.7-1.892C3338.89-594.593,3339.012-661.662,3334.671-689.24Z" transform="translate(-2773.573 1767.83)" fill="#fff"/>
      <path id="Path_400" data-name="Path 400" d="M2516.162-1093.319c20.209,18.257,75.055,53.932,147.63-9.285l5.117-4.46,20.45,27.149-4.6,3.858c-.6.507-38.66,31.8-88.308,34.816-28.915,1.756-61.744-6.073-93.41-35.13l-3.829-3.508,11.258-18.582Z" transform="translate(-1366.171 1767.83)" fill="#fff"/>
      <path id="Path_401" data-name="Path 401" d="M2832.375-1221.8l6.124-.585.738,30.8-5.424.416c-.711.057-45.271,3.024-83.443-20.962-22.23-13.97-42.285-37.068-50.278-75.192l-.97-4.606,18.1-7.748,1.476,6.791C2723.955-1268.77,2745.532-1213.534,2832.375-1221.8Z" transform="translate(-1715.955 1767.83)" fill="#fff"/>
      <path id="Path_402" data-name="Path 402" d="M2673.724-1196.307l.866-7.955,18.287,5.638-.566,5.4c-2.526,24.7-12.9,44.372-30.828,58.444-25.826,20.3-58.454,21.49-58.752,21.5l-6.275.179-2.168-26.89,7.09-.07C2661.135-1140.647,2671.875-1179.59,2673.724-1196.307Z" transform="translate(-1464.761 1767.83)" fill="#fff"/>
      <path id="Path_403" data-name="Path 403" d="M2633.2-1289.343c-15.721,14.425-38.129,25.186-69.724,23.268l-3.819-.229-2.187-15.852,5.64.3c20.03,1.06,67.955-4,80.114-73.835l.856-4.926,24.3,6.033-.837,4.34C2667.435-1349.674,2660.2-1314.112,2633.2-1289.343Z" transform="translate(-1403.45 1767.83)" fill="#fff"/>
      <path id="Path_404" data-name="Path 404" d="M2744.228-1267.763c-17.513-8.632-29.168-21.669-34.657-38.744-7.717-24.116-.1-48.092.249-49.146l1.75-5.131,21.331,6.016-2.079,5.778c-15.642,43.408,9.627,61.646,21.212,67.463l6.185,3.1-9.785,12.739Z" transform="translate(-1641.943 1767.83)" fill="#fff"/>
      <path id="Path_405" data-name="Path 405" d="M2787.125-1144.087l-.253-6.629,15.089,2.3.215,4.5c.822,18.159-4.57,33.522-16.039,45.656-16.537,17.483-39.93,21.817-40.174,21.864l-5.124.9-4.738-20.4,5.813-.935C2784.1-1103.516,2787.581-1132.1,2787.125-1144.087Z" transform="translate(-1715.955 1767.83)" fill="#fff"/>
      <path id="Path_406" data-name="Path 406" d="M2169.522-1021.637c-15.721,14.426-38.129,25.187-69.723,23.269l-3.819-.229-2.187-15.852,5.639.3c20.031,1.061,67.955-4,80.114-73.834l.856-4.926,24.3,6.032-.837,4.341C2203.753-1081.968,2196.514-1046.405,2169.522-1021.637Z" transform="translate(-476.087 1767.83)" fill="#fff"/>
      <path id="Path_407" data-name="Path 407" d="M2280.545-1000.057c-17.512-8.632-29.167-21.669-34.657-38.744-7.717-24.115-.1-48.091.249-49.145l1.75-5.132,21.331,6.017-2.078,5.778c-15.643,43.407,9.626,61.645,21.211,67.463l6.186,3.1-9.785,12.739Z" transform="translate(-714.579 1767.83)" fill="#fff"/>
      <path id="Path_408" data-name="Path 408" d="M2039.977-1270.342a80.168,80.168,0,0,1-5.695,6.33c-11.043,11.022-24.171,17.254-39.129,18.568-25.57,2.24-47.011-10.811-47.222-10.938l-4.589-2.81,10.468-19.271,5.137,3.275c38.335,24.487,61.384,4.194,69.438-5.7l4.365-5.3,10.156,12.231Z" transform="translate(-163.844 1767.83)" fill="#fff"/>
      <path id="Path_409" data-name="Path 409" d="M1905.012-1221.8l6.125-.585.737,30.8-5.423.416c-.711.057-45.271,3.024-83.443-20.962-22.231-13.97-42.285-37.068-50.278-75.192l-.97-4.606,18.1-7.748,1.476,6.791C1796.592-1268.77,1818.17-1213.534,1905.012-1221.8Z" transform="translate(138.77 1767.83)" fill="#fff"/>
      <path id="Path_410" data-name="Path 410" d="M2046.583-1105.581l7.068-.437-.2,26.976-6.241.277c-.318.013-32.937,1.2-60.183-17.16-18.908-12.737-30.686-31.589-35-56.042l-.96-5.354,17.829-6.956,1.442,7.871C1973.383-1139.867,1986.914-1101.8,2046.583-1105.581Z" transform="translate(-182.306 1767.83)" fill="#fff"/>
      <path id="Path_411" data-name="Path 411" d="M1928.12-1152.8c-17.274-6.562-34.311-19.725-45.1-44.925l-1.308-3.044,11.42-7.853,1.96,4.481c6.963,15.917,29.5,51.045,88.281,33.317l4.145-1.251,4.772,21.15-3.685,1.038C1988.119-1149.752,1957.781-1141.535,1928.12-1152.8Z" transform="translate(-51.59 1767.83)" fill="#fff"/>
      <path id="Path_412" data-name="Path 412" d="M1859.762-1144.087l-.253-6.629,15.089,2.3.215,4.5c.822,18.159-4.57,33.522-16.039,45.656-16.537,17.483-39.93,21.817-40.174,21.864l-5.124.9-4.738-20.4,5.813-.935C1856.735-1103.516,1860.218-1132.1,1859.762-1144.087Z" transform="translate(138.771 1767.83)" fill="#fff"/>
      <path id="Path_413" data-name="Path 413" d="M2516.162-1628.733c20.209,18.258,75.055,53.933,147.63-9.284l5.117-4.46,20.45,27.148-4.6,3.859c-.6.507-38.66,31.8-88.308,34.816-28.915,1.756-61.744-6.073-93.41-35.13l-3.829-3.509,11.258-18.581Z" transform="translate(-1366.171 1767.83)" fill="#fff"/>
      <path id="Path_414" data-name="Path 414" d="M2616.883-1528.8l21.716-.691-1.211,7.572c-4.29,26.894-4.3,92.322,88.257,118.708l6.529,1.859-11.613,31.944-5.74-1.75c-.753-.228-47.736-15.077-77.326-55.058-17.234-23.284-28.565-55.075-21.466-97.461Z" transform="translate(-1523.648 1767.83)" fill="#fff"/>
      <path id="Path_415" data-name="Path 415" d="M2544.906-1536.052l-3.013-5.151,16.01-14.181,4.495,7.578c10.024,16.915,40.246,53.233,104.109,25.03l7.14-3.152,10.313,28.729-6.345,2.675a135.726,135.726,0,0,1-46.55,8.384,108.442,108.442,0,0,1-25.736-2.984C2579.7-1495.409,2559.365-1511.2,2544.906-1536.052Z" transform="translate(-1403.449 1767.83)" fill="#fff"/>
      <path id="Path_416" data-name="Path 416" d="M2870.989-1492.36l-1.224-7.763,22.259.753.864,5.253c7.189,43.465-4.493,76.029-22.207,99.861-30.417,40.922-78.61,56.045-79.382,56.276l-5.888,1.783-11.837-32.77,6.7-1.893C2875.208-1397.712,2875.332-1464.781,2870.989-1492.36Z" transform="translate(-1846.211 1767.83)" fill="#fff"/>
      <path id="Path_417" data-name="Path 417" d="M2619.694-1429.543l4.857-1.06.286,11.436-3.293.751c-13.289,3-25.332,1.042-35.794-5.822-15.075-9.9-21.352-26.585-21.419-26.759l-1.339-3.662,14.422-6.18,1.455,4.165C2589.365-1426.435,2610.909-1427.628,2619.694-1429.543Z" transform="translate(-1365.425 1767.83)" fill="#fff"/>
      <path id="Path_418" data-name="Path 418" d="M2770.151-1590.946l-4.3-6.918-13.768,12.709,2.874,4.73c11.637,19.038,27.674,30.965,47.677,35.433,28.832,6.427,55.608-5.231,55.889-5.351l5.832-2.6-9.188-24-6.556,3.041C2801.1-1551.749,2777.921-1578.435,2770.151-1590.946Z" transform="translate(-1794.042 1767.83)" fill="#fff"/>
      <path id="Path_419" data-name="Path 419" d="M2052.481-1361.026c20.208,18.258,75.054,53.933,147.629-9.284l5.117-4.46,20.451,27.148-4.6,3.859c-.6.507-38.66,31.8-88.309,34.816-28.915,1.756-61.744-6.074-93.409-35.13l-3.83-3.509,11.258-18.582Z" transform="translate(-438.808 1767.83)" fill="#fff"/>
      <path id="Path_420" data-name="Path 420" d="M2503.66-1538.049a80.251,80.251,0,0,1-5.7,6.331c-11.044,11.022-24.171,17.253-39.129,18.568-25.57,2.239-47.012-10.811-47.222-10.938l-4.59-2.81,10.468-19.272,5.138,3.275c38.334,24.487,61.383,4.194,69.437-5.7l4.365-5.3,10.156,12.231Z" transform="translate(-1091.208 1767.83)" fill="#fff"/>
      <path id="Path_421" data-name="Path 421" d="M2153.2-1261.095l21.716-.691-1.211,7.572c-4.291,26.894-4.3,92.322,88.257,118.707l6.528,1.859-11.612,31.944-5.741-1.75c-.753-.227-47.736-15.076-77.326-55.057-17.233-23.284-28.564-55.075-21.465-97.461Z" transform="translate(-596.284 1767.83)" fill="#fff"/>
      <path id="Path_422" data-name="Path 422" d="M2368.693-1489.508l6.125-.584.737,30.8-5.424.417c-.71.057-45.271,3.024-83.442-20.963-22.231-13.97-42.286-37.068-50.278-75.191l-.97-4.607,18.1-7.748,1.477,6.791C2260.273-1536.477,2281.851-1481.24,2368.693-1489.508Z" transform="translate(-788.592 1767.83)" fill="#fff"/>
      <path id="Path_423" data-name="Path 423" d="M2210.043-1464.013l.865-7.956,18.288,5.639-.567,5.4c-2.526,24.7-12.9,44.373-30.828,58.444-25.826,20.3-58.454,21.49-58.752,21.5l-6.275.179-2.168-26.89,7.091-.069C2197.453-1408.354,2208.193-1447.3,2210.043-1464.013Z" transform="translate(-537.398 1767.83)" fill="#fff"/>
      <path id="Path_424" data-name="Path 424" d="M2081.225-1268.345l-3.013-5.152,16.011-14.18,4.5,7.577c10.024,16.916,40.245,53.233,104.109,25.031l7.14-3.153,10.312,28.73-6.344,2.675a135.779,135.779,0,0,1-46.551,8.383,108.454,108.454,0,0,1-25.736-2.983C2116.021-1227.7,2095.684-1243.494,2081.225-1268.345Z" transform="translate(-476.087 1767.83)" fill="#fff"/>
      <path id="Path_425" data-name="Path 425" d="M2433.379-1315.955c26.512,52.219,65.365,44.671,80.8,39.033l7.419-2.715,3.013,18.6-5.012,1.879a89.455,89.455,0,0,1-31.415,6.007,76.7,76.7,0,0,1-33.364-7.647c-28.978-13.833-44.312-42-44.452-42.265l-2.9-5.479,22.754-13.654Z" transform="translate(-1109.669 1767.83)" fill="#fff"/>
      <path id="Path_426" data-name="Path 426" d="M2510.265-1373.288l7.067-.437-.2,26.977-6.242.276c-.318.014-32.936,1.2-60.182-17.159-18.909-12.738-30.686-31.59-35.005-56.042l-.96-5.354,17.828-6.957,1.443,7.872C2437.065-1407.574,2450.6-1369.506,2510.265-1373.288Z" transform="translate(-1109.669 1767.83)" fill="#fff"/>
      <path id="Path_427" data-name="Path 427" d="M2407.307-1216.233l6.4,4.456c57.221,39.976,93.9,10.193,106.983-4.485l5.857-6.574,12.988,17.015-3.948,4.465c-18.994,21.61-41.986,33.185-68.339,34.408-1.561.07-3.113.1-4.644.1-36.079,0-64.938-19.133-65.236-19.342l-5.718-3.849Z" transform="translate(-1108.789 1767.83)" fill="#fff"/>
      <path id="Path_428" data-name="Path 428" d="M2407.309-1224.653l-1.225-7.764,22.259.754.864,5.253c7.189,43.464-4.493,76.028-22.207,99.861-30.416,40.922-78.609,56.044-79.381,56.276l-5.888,1.782-11.838-32.77,6.7-1.892C2411.527-1130.006,2411.651-1197.075,2407.309-1224.653Z" transform="translate(-918.849 1767.83)" fill="#fff"/>
      <path id="Path_429" data-name="Path 429" d="M2169.522-1557.05c-15.721,14.426-38.129,25.187-69.723,23.268l-3.819-.228-2.187-15.852,5.639.3c20.031,1.061,67.955-4,80.114-73.834l.856-4.927,24.3,6.033-.837,4.34C2203.753-1617.381,2196.514-1581.819,2169.522-1557.05Z" transform="translate(-476.087 1767.83)" fill="#fff"/>
      <path id="Path_430" data-name="Path 430" d="M2280.545-1535.47c-17.512-8.632-29.167-21.669-34.657-38.744-7.717-24.115-.1-48.091.249-49.145l1.75-5.132,21.331,6.017-2.078,5.777c-15.643,43.408,9.626,61.646,21.211,67.464l6.186,3.1-9.785,12.738Z" transform="translate(-714.579 1767.83)" fill="#fff"/>
      <path id="Path_431" data-name="Path 431" d="M2391.8-1420.509c-17.275-6.562-34.311-19.724-45.1-44.925l-1.307-3.044,11.42-7.853,1.959,4.482c6.964,15.916,29.5,51.044,88.281,33.316l4.145-1.251,4.773,21.15-3.685,1.038C2451.8-1417.458,2421.461-1409.241,2391.8-1420.509Z" transform="translate(-978.952 1767.83)" fill="#fff"/>
      <path id="Path_432" data-name="Path 432" d="M2323.443-1411.793l-.253-6.629,15.09,2.305.215,4.5c.821,18.159-4.57,33.522-16.039,45.656-16.537,17.482-39.93,21.817-40.175,21.863l-5.123.9-4.739-20.4,5.813-.935C2320.417-1371.223,2323.9-1399.8,2323.443-1411.793Z" transform="translate(-788.592 1767.83)" fill="#fff"/>
      <path id="Path_433" data-name="Path 433" d="M2546.946-1255.414l-3.554-3.476-6.312,9.54,2.393,2.385c9.671,9.593,20.916,14.328,33.426,14.064,18.029-.389,32.206-11.2,32.355-11.312l3.079-2.392-8.943-12.893-3.444,2.758C2571-1236.683,2553.375-1249.129,2546.946-1255.414Z" transform="translate(-1323.009 1767.83)" fill="#fff"/>
      <path id="Path_434" data-name="Path 434" d="M2156.013-1161.837l4.857-1.059.286,11.435-3.294.752c-13.288,3-25.332,1.041-35.794-5.822-15.074-9.9-21.352-26.586-21.418-26.76l-1.34-3.661,14.423-6.181,1.455,4.166C2125.684-1158.729,2147.228-1159.922,2156.013-1161.837Z" transform="translate(-438.062 1767.83)" fill="#fff"/>
      <path id="Path_435" data-name="Path 435" d="M2306.469-1323.239l-4.3-6.919-13.768,12.71,2.874,4.729c11.637,19.039,27.674,30.966,47.677,35.433,28.832,6.428,55.609-5.23,55.889-5.35l5.833-2.6-9.189-24.005-6.555,3.042C2337.415-1284.042,2314.24-1310.728,2306.469-1323.239Z" transform="translate(-866.679 1767.83)" fill="#fff"/>
      <path id="Path_436" data-name="Path 436" d="M1969.7-1583.661c26.512,52.218,65.366,44.67,80.8,39.032l7.419-2.715,3.013,18.6-5.012,1.88a89.469,89.469,0,0,1-31.415,6.006,76.684,76.684,0,0,1-33.363-7.647c-28.979-13.833-44.313-42-44.452-42.264l-2.9-5.48,22.753-13.653Z" transform="translate(-182.306 1767.83)" fill="#fff"/>
      <path id="Path_437" data-name="Path 437" d="M1943.626-1483.939l6.4,4.455c57.221,39.977,93.9,10.193,106.983-4.485l5.858-6.573,12.987,17.015-3.948,4.465c-18.994,21.609-41.986,33.185-68.339,34.408-1.561.069-3.112.1-4.644.1-36.078,0-64.937-19.133-65.236-19.342l-5.718-3.848Z" transform="translate(-181.427 1767.83)" fill="#fff"/>
      <path id="Path_438" data-name="Path 438" d="M1943.626-1492.36l-1.225-7.763,22.26.753.864,5.253c7.189,43.465-4.494,76.029-22.208,99.861-30.416,40.922-78.609,56.045-79.381,56.276l-5.888,1.783-11.837-32.77,6.7-1.893C1947.845-1397.712,1947.968-1464.781,1943.626-1492.36Z" transform="translate(8.515 1767.83)" fill="#fff"/>
      <path id="Path_439" data-name="Path 439" d="M2083.266-1523.121l-3.555-3.476-6.312,9.54,2.393,2.385c9.672,9.593,20.917,14.328,33.426,14.064,18.03-.388,32.207-11.2,32.356-11.311l3.078-2.392-8.943-12.893-3.444,2.757C2107.32-1504.389,2089.694-1516.835,2083.266-1523.121Z" transform="translate(-395.647 1767.83)" fill="#fff"/>
      <path id="Path_440" data-name="Path 440" d="M1842.789-1590.946l-4.3-6.918-13.769,12.709,2.875,4.73c11.636,19.038,27.674,30.965,47.676,35.433,28.833,6.427,55.609-5.231,55.89-5.351l5.832-2.6-9.188-24-6.556,3.041C1873.734-1551.749,1850.559-1578.435,1842.789-1590.946Z" transform="translate(60.683 1767.83)" fill="#fff"/>
      <path id="Path_441" data-name="Path 441" d="M2407.309-1760.066l-1.225-7.764,22.259.753.864,5.254c7.189,43.464-4.493,76.028-22.207,99.861-30.416,40.922-78.609,56.044-79.381,56.276l-5.888,1.782-11.838-32.77,6.7-1.892C2411.527-1665.419,2411.651-1732.488,2407.309-1760.066Z" transform="translate(-918.849 1767.83)" fill="#fff"/>
      <path id="Path_442" data-name="Path 442" d="M2516.162-557.906c20.209,18.257,75.055,53.933,147.63-9.285l5.117-4.46,20.45,27.149-4.6,3.858c-.6.507-38.66,31.8-88.308,34.817-28.915,1.755-61.744-6.074-93.41-35.131l-3.829-3.508,11.258-18.582Z" transform="translate(-1366.171 1767.83)" fill="#fff"/>
      <path id="Path_443" data-name="Path 443" d="M2832.375-686.388l6.124-.585.738,30.8-5.424.417c-.711.056-45.271,3.024-83.443-20.963-22.23-13.97-42.285-37.068-50.278-75.191l-.97-4.607,18.1-7.748,1.476,6.791C2723.955-733.357,2745.532-678.12,2832.375-686.388Z" transform="translate(-1715.955 1767.83)" fill="#fff"/>
      <path id="Path_444" data-name="Path 444" d="M2673.724-660.894l.866-7.955,18.287,5.638-.566,5.4c-2.526,24.7-12.9,44.373-30.828,58.444-25.826,20.3-58.454,21.49-58.752,21.5l-6.275.179-2.168-26.89,7.09-.069C2661.135-605.234,2671.875-644.177,2673.724-660.894Z" transform="translate(-1464.761 1767.83)" fill="#fff"/>
      <path id="Path_445" data-name="Path 445" d="M2633.2-753.93c-15.721,14.426-38.129,25.186-69.724,23.268l-3.819-.229-2.187-15.852,5.64.3c20.03,1.06,67.955-4,80.114-73.835l.856-4.926,24.3,6.033-.837,4.34C2667.435-814.261,2660.2-778.7,2633.2-753.93Z" transform="translate(-1403.45 1767.83)" fill="#fff"/>
      <path id="Path_446" data-name="Path 446" d="M2744.228-732.35c-17.513-8.632-29.168-21.669-34.657-38.744-7.717-24.115-.1-48.092.249-49.146l1.75-5.131,21.331,6.016-2.079,5.778c-15.642,43.408,9.627,61.646,21.212,67.464l6.185,3.1-9.785,12.739Z" transform="translate(-1641.943 1767.83)" fill="#fff"/>
      <path id="Path_447" data-name="Path 447" d="M2787.125-608.673l-.253-6.63L2801.961-613l.215,4.5c.822,18.159-4.57,33.522-16.039,45.656-16.537,17.482-39.93,21.816-40.174,21.863l-5.124.9-4.738-20.4,5.813-.935C2784.1-568.1,2787.581-596.684,2787.125-608.673Z" transform="translate(-1715.955 1767.83)" fill="#fff"/>
      <path id="Path_448" data-name="Path 448" d="M2169.522-486.224c-15.721,14.426-38.129,25.187-69.723,23.269l-3.819-.229-2.187-15.852,5.639.3c20.031,1.06,67.955-4,80.114-73.835l.856-4.926,24.3,6.032-.837,4.341C2203.753-546.554,2196.514-510.992,2169.522-486.224Z" transform="translate(-476.087 1767.83)" fill="#fff"/>
      <path id="Path_449" data-name="Path 449" d="M2280.545-464.644c-17.512-8.631-29.167-21.669-34.657-38.743-7.717-24.116-.1-48.092.249-49.146l1.75-5.131,21.331,6.016-2.078,5.778c-15.643,43.407,9.626,61.646,21.211,67.463l6.186,3.1-9.785,12.739Z" transform="translate(-714.579 1767.83)" fill="#fff"/>
      <path id="Path_450" data-name="Path 450" d="M2039.977-734.929a79.994,79.994,0,0,1-5.695,6.33c-11.043,11.023-24.171,17.254-39.129,18.569-25.57,2.239-47.011-10.812-47.222-10.938l-4.589-2.811,10.468-19.271,5.137,3.275c38.335,24.487,61.384,4.194,69.438-5.7l4.365-5.3,10.156,12.232Z" transform="translate(-163.844 1767.83)" fill="#fff"/>
      <path id="Path_451" data-name="Path 451" d="M1905.012-686.388l6.125-.585.737,30.8-5.423.417c-.711.056-45.271,3.024-83.443-20.963-22.231-13.97-42.285-37.068-50.278-75.191l-.97-4.607,18.1-7.748,1.476,6.791C1796.592-733.357,1818.17-678.12,1905.012-686.388Z" transform="translate(138.77 1767.83)" fill="#fff"/>
      <path id="Path_452" data-name="Path 452" d="M2046.583-570.168l7.068-.437-.2,26.977-6.241.276c-.318.013-32.937,1.2-60.183-17.16-18.908-12.737-30.686-31.589-35-56.041l-.96-5.355,17.829-6.956,1.442,7.872C1973.383-604.454,1986.914-566.386,2046.583-570.168Z" transform="translate(-182.306 1767.83)" fill="#fff"/>
      <path id="Path_453" data-name="Path 453" d="M1928.12-617.389c-17.274-6.562-34.311-19.724-45.1-44.925l-1.308-3.044,11.42-7.853,1.96,4.482c6.963,15.916,29.5,51.044,88.281,33.316l4.145-1.251,4.772,21.15-3.685,1.038C1988.119-614.339,1957.781-606.121,1928.12-617.389Z" transform="translate(-51.59 1767.83)" fill="#fff"/>
      <path id="Path_454" data-name="Path 454" d="M1859.762-608.673l-.253-6.63L1874.6-613l.215,4.5c.822,18.159-4.57,33.522-16.039,45.656-16.537,17.482-39.93,21.816-40.174,21.863l-5.124.9-4.738-20.4,5.813-.935C1856.735-568.1,1860.218-596.684,1859.762-608.673Z" transform="translate(138.771 1767.83)" fill="#fff"/>
      <path id="Path_455" data-name="Path 455" d="M2516.162-1093.319c20.209,18.257,75.055,53.932,147.63-9.285l5.117-4.46,20.45,27.149-4.6,3.858c-.6.507-38.66,31.8-88.308,34.816-28.915,1.756-61.744-6.073-93.41-35.13l-3.829-3.508,11.258-18.582Z" transform="translate(-1366.171 1767.83)" fill="#fff"/>
      <path id="Path_456" data-name="Path 456" d="M2616.883-993.389l21.716-.69-1.211,7.571c-4.29,26.894-4.3,92.322,88.257,118.708l6.529,1.859L2720.561-834l-5.74-1.75c-.753-.228-47.736-15.077-77.326-55.057-17.234-23.285-28.565-55.076-21.466-97.462Z" transform="translate(-1523.648 1767.83)" fill="#fff"/>
      <path id="Path_457" data-name="Path 457" d="M2544.906-1000.639l-3.013-5.151,16.01-14.181,4.495,7.578c10.024,16.915,40.246,53.233,104.109,25.03l7.14-3.152,10.313,28.729-6.345,2.676a135.771,135.771,0,0,1-46.55,8.383,108.445,108.445,0,0,1-25.736-2.984C2579.7-960,2559.365-975.787,2544.906-1000.639Z" transform="translate(-1403.449 1767.83)" fill="#fff"/>
      <path id="Path_458" data-name="Path 458" d="M2870.989-956.946l-1.224-7.764,22.259.753.864,5.254c7.189,43.464-4.493,76.028-22.207,99.861-30.417,40.921-78.61,56.044-79.382,56.275l-5.888,1.783-11.837-32.77,6.7-1.892C2875.208-862.3,2875.332-929.368,2870.989-956.946Z" transform="translate(-1846.211 1767.83)" fill="#fff"/>
      <path id="Path_459" data-name="Path 459" d="M2619.694-894.13l4.857-1.06.286,11.436-3.293.751c-13.289,3-25.332,1.042-35.794-5.822-15.075-9.9-21.352-26.585-21.419-26.759l-1.339-3.661,14.422-6.181,1.455,4.165C2589.365-891.022,2610.909-892.215,2619.694-894.13Z" transform="translate(-1365.425 1767.83)" fill="#fff"/>
      <path id="Path_460" data-name="Path 460" d="M2770.151-1055.532l-4.3-6.919-13.768,12.71,2.874,4.729c11.637,19.039,27.674,30.965,47.677,35.433,28.832,6.427,55.608-5.23,55.889-5.351l5.832-2.6-9.188-24-6.556,3.041C2801.1-1016.336,2777.921-1043.022,2770.151-1055.532Z" transform="translate(-1794.042 1767.83)" fill="#fff"/>
      <path id="Path_461" data-name="Path 461" d="M2052.481-825.613c20.208,18.258,75.054,53.933,147.629-9.284l5.117-4.46,20.451,27.148-4.6,3.859c-.6.507-38.66,31.8-88.309,34.816-28.915,1.756-61.744-6.074-93.409-35.13l-3.83-3.509,11.258-18.582Z" transform="translate(-438.808 1767.83)" fill="#fff"/>
      <path id="Path_462" data-name="Path 462" d="M2503.66-1002.635a80.41,80.41,0,0,1-5.7,6.33c-11.044,11.022-24.171,17.253-39.129,18.568-25.57,2.239-47.012-10.811-47.222-10.938l-4.59-2.81,10.468-19.271,5.138,3.274c38.334,24.487,61.383,4.2,69.437-5.7l4.365-5.3,10.156,12.231Z" transform="translate(-1091.208 1767.83)" fill="#fff"/>
      <path id="Path_463" data-name="Path 463" d="M2153.2-725.682l21.716-.691-1.211,7.572c-4.291,26.894-4.3,92.322,88.257,118.707l6.528,1.859-11.612,31.945-5.741-1.751c-.753-.227-47.736-15.076-77.326-55.057-17.233-23.284-28.564-55.075-21.465-97.461Z" transform="translate(-596.284 1767.83)" fill="#fff"/>
      <path id="Path_464" data-name="Path 464" d="M2368.693-954.095l6.125-.584.737,30.8-5.424.416c-.71.057-45.271,3.024-83.442-20.963-22.231-13.97-42.286-37.068-50.278-75.191l-.97-4.606,18.1-7.748,1.477,6.79C2260.273-1001.063,2281.851-945.827,2368.693-954.095Z" transform="translate(-788.592 1767.83)" fill="#fff"/>
      <path id="Path_465" data-name="Path 465" d="M2210.043-928.6l.865-7.956,18.288,5.639-.567,5.4c-2.526,24.7-12.9,44.372-30.828,58.443-25.826,20.3-58.454,21.491-58.752,21.5l-6.275.179-2.168-26.889,7.091-.07C2197.453-872.941,2208.193-911.883,2210.043-928.6Z" transform="translate(-537.398 1767.83)" fill="#fff"/>
      <path id="Path_466" data-name="Path 466" d="M2081.225-732.932l-3.013-5.151,16.011-14.181,4.5,7.577c10.024,16.916,40.245,53.233,104.109,25.031l7.14-3.153,10.312,28.73-6.344,2.675a135.753,135.753,0,0,1-46.551,8.383A108.45,108.45,0,0,1,2141.648-686C2116.021-692.289,2095.684-708.081,2081.225-732.932Z" transform="translate(-476.087 1767.83)" fill="#fff"/>
      <path id="Path_467" data-name="Path 467" d="M2433.379-780.541c26.512,52.218,65.365,44.67,80.8,39.032l7.419-2.715,3.013,18.6-5.012,1.88a89.475,89.475,0,0,1-31.415,6.006,76.7,76.7,0,0,1-33.364-7.647c-28.978-13.833-44.312-42-44.452-42.264l-2.9-5.48,22.754-13.654Z" transform="translate(-1109.669 1767.83)" fill="#fff"/>
      <path id="Path_468" data-name="Path 468" d="M2510.265-837.875l7.067-.436-.2,26.976-6.242.277c-.318.013-32.936,1.2-60.182-17.16-18.909-12.737-30.686-31.59-35.005-56.042l-.96-5.354,17.828-6.956,1.443,7.871C2437.065-872.161,2450.6-834.093,2510.265-837.875Z" transform="translate(-1109.669 1767.83)" fill="#fff"/>
      <path id="Path_469" data-name="Path 469" d="M2407.307-680.819l6.4,4.455c57.221,39.977,93.9,10.193,106.983-4.485l5.857-6.574,12.988,17.015-3.948,4.466c-18.994,21.609-41.986,33.184-68.339,34.408-1.561.069-3.113.1-4.644.1-36.079,0-64.938-19.133-65.236-19.342l-5.718-3.849Z" transform="translate(-1108.789 1767.83)" fill="#fff"/>
      <path id="Path_470" data-name="Path 470" d="M2407.309-689.24,2406.084-697l22.259.754.864,5.253c7.189,43.464-4.493,76.028-22.207,99.861-30.416,40.922-78.609,56.044-79.381,56.276l-5.888,1.782-11.838-32.77,6.7-1.892C2411.527-594.593,2411.651-661.662,2407.309-689.24Z" transform="translate(-918.849 1767.83)" fill="#fff"/>
      <path id="Path_471" data-name="Path 471" d="M2169.522-1021.637c-15.721,14.426-38.129,25.187-69.723,23.269l-3.819-.229-2.187-15.852,5.639.3c20.031,1.061,67.955-4,80.114-73.834l.856-4.926,24.3,6.032-.837,4.341C2203.753-1081.968,2196.514-1046.405,2169.522-1021.637Z" transform="translate(-476.087 1767.83)" fill="#fff"/>
      <path id="Path_472" data-name="Path 472" d="M2280.545-1000.057c-17.512-8.632-29.167-21.669-34.657-38.744-7.717-24.115-.1-48.091.249-49.145l1.75-5.132,21.331,6.017-2.078,5.778c-15.643,43.407,9.626,61.645,21.211,67.463l6.186,3.1-9.785,12.739Z" transform="translate(-714.579 1767.83)" fill="#fff"/>
      <path id="Path_473" data-name="Path 473" d="M2391.8-885.1c-17.275-6.562-34.311-19.724-45.1-44.925l-1.307-3.044,11.42-7.853,1.959,4.482c6.964,15.916,29.5,51.044,88.281,33.317l4.145-1.252,4.773,21.15-3.685,1.038C2451.8-882.045,2421.461-873.828,2391.8-885.1Z" transform="translate(-978.952 1767.83)" fill="#fff"/>
      <path id="Path_474" data-name="Path 474" d="M2323.443-876.38l-.253-6.629,15.09,2.3.215,4.5c.821,18.159-4.57,33.522-16.039,45.656-16.537,17.482-39.93,21.817-40.175,21.864l-5.123.9-4.739-20.395,5.813-.935C2320.417-835.809,2323.9-864.391,2323.443-876.38Z" transform="translate(-788.592 1767.83)" fill="#fff"/>
      <path id="Path_475" data-name="Path 475" d="M2546.946-720l-3.554-3.476-6.312,9.54,2.393,2.385c9.671,9.593,20.916,14.328,33.426,14.064,18.029-.388,32.206-11.2,32.355-11.312l3.079-2.392-8.943-12.893-3.444,2.758C2571-701.269,2553.375-713.715,2546.946-720Z" transform="translate(-1323.009 1767.83)" fill="#fff"/>
      <path id="Path_476" data-name="Path 476" d="M2156.013-626.424l4.857-1.059.286,11.435-3.294.752c-13.288,3-25.332,1.042-35.794-5.822-15.074-9.9-21.352-26.585-21.418-26.759l-1.34-3.662,14.423-6.18,1.455,4.165C2125.684-623.315,2147.228-624.509,2156.013-626.424Z" transform="translate(-438.062 1767.83)" fill="#fff"/>
      <path id="Path_477" data-name="Path 477" d="M2306.469-787.826l-4.3-6.918-13.768,12.709,2.874,4.729c11.637,19.039,27.674,30.966,47.677,35.433,28.832,6.428,55.609-5.23,55.889-5.35l5.833-2.6-9.189-24-6.555,3.041C2337.415-748.629,2314.24-775.315,2306.469-787.826Z" transform="translate(-866.679 1767.83)" fill="#fff"/>
      <path id="Path_478" data-name="Path 478" d="M1969.7-1048.248c26.512,52.219,65.366,44.671,80.8,39.032l7.419-2.715,3.013,18.6-5.012,1.879a89.451,89.451,0,0,1-31.415,6.007,76.686,76.686,0,0,1-33.363-7.648c-28.979-13.833-44.313-41.995-44.452-42.264l-2.9-5.479,22.753-13.654Z" transform="translate(-182.306 1767.83)" fill="#fff"/>
      <path id="Path_479" data-name="Path 479" d="M1943.626-948.526l6.4,4.455c57.221,39.977,93.9,10.193,106.983-4.485l5.858-6.573,12.987,17.015-3.948,4.465c-18.994,21.609-41.986,33.185-68.339,34.408-1.561.07-3.112.1-4.644.1-36.078,0-64.937-19.133-65.236-19.342l-5.718-3.848Z" transform="translate(-181.427 1767.83)" fill="#fff"/>
      <path id="Path_480" data-name="Path 480" d="M1943.626-956.946l-1.225-7.764,22.26.753.864,5.254c7.189,43.464-4.494,76.028-22.208,99.861-30.416,40.921-78.609,56.044-79.381,56.275l-5.888,1.783-11.837-32.77,6.7-1.892C1947.845-862.3,1947.968-929.368,1943.626-956.946Z" transform="translate(8.515 1767.83)" fill="#fff"/>
      <path id="Path_481" data-name="Path 481" d="M2083.266-987.707l-3.555-3.477-6.312,9.541,2.393,2.385c9.672,9.592,20.917,14.328,33.426,14.063,18.03-.388,32.207-11.2,32.356-11.311l3.078-2.392-8.943-12.893-3.444,2.758C2107.32-968.976,2089.694-981.422,2083.266-987.707Z" transform="translate(-395.647 1767.83)" fill="#fff"/>
      <path id="Path_482" data-name="Path 482" d="M1842.789-1055.532l-4.3-6.919-13.769,12.71,2.875,4.729c11.636,19.039,27.674,30.965,47.676,35.433,28.833,6.427,55.609-5.23,55.89-5.351l5.832-2.6-9.188-24-6.556,3.041C1873.734-1016.336,1850.559-1043.022,1842.789-1055.532Z" transform="translate(60.683 1767.83)" fill="#fff"/>
      <path id="Path_483" data-name="Path 483" d="M2407.309-1224.653l-1.225-7.764,22.259.754.864,5.253c7.189,43.464-4.493,76.028-22.207,99.861-30.416,40.922-78.609,56.044-79.381,56.276l-5.888,1.782-11.838-32.77,6.7-1.892C2411.527-1130.006,2411.651-1197.075,2407.309-1224.653Z" transform="translate(-918.849 1767.83)" fill="#fff"/>
      <path id="Path_484" data-name="Path 484" d="M2516.162-22.493c20.209,18.258,75.055,53.933,147.63-9.284l5.117-4.461,20.45,27.149-4.6,3.858c-.6.508-38.66,31.8-88.308,34.817-28.915,1.756-61.744-6.074-93.41-35.13l-3.829-3.509,11.258-18.582Z" transform="translate(-1366.171 1767.83)" fill="#fff"/>
      <path id="Path_485" data-name="Path 485" d="M2832.375-150.975l6.124-.584.738,30.8-5.424.417c-.711.057-45.271,3.024-83.443-20.963-22.23-13.97-42.285-37.068-50.278-75.191l-.97-4.607,18.1-7.748,1.476,6.791C2723.955-197.944,2745.532-142.707,2832.375-150.975Z" transform="translate(-1715.955 1767.83)" fill="#fff"/>
      <path id="Path_486" data-name="Path 486" d="M2673.724-125.48l.866-7.956,18.287,5.639-.566,5.4c-2.526,24.7-12.9,44.373-30.828,58.444-25.826,20.3-58.454,21.49-58.752,21.5l-6.275.179-2.168-26.89,7.09-.069C2661.135-69.821,2671.875-108.764,2673.724-125.48Z" transform="translate(-1464.761 1767.83)" fill="#fff"/>
      <path id="Path_487" data-name="Path 487" d="M2633.2-218.517c-15.721,14.426-38.129,25.187-69.724,23.268l-3.819-.228-2.187-15.852,5.64.3c20.03,1.06,67.955-4,80.114-73.834l.856-4.927,24.3,6.033-.837,4.34C2667.435-278.848,2660.2-243.286,2633.2-218.517Z" transform="translate(-1403.45 1767.83)" fill="#fff"/>
      <path id="Path_488" data-name="Path 488" d="M2744.228-196.937c-17.513-8.632-29.168-21.669-34.657-38.744-7.717-24.115-.1-48.091.249-49.146l1.75-5.131,21.331,6.017-2.079,5.777c-15.642,43.408,9.627,61.646,21.212,67.464l6.185,3.1-9.785,12.739Z" transform="translate(-1641.943 1767.83)" fill="#fff"/>
      <path id="Path_489" data-name="Path 489" d="M2787.125-73.26l-.253-6.63,15.089,2.306.215,4.5c.822,18.159-4.57,33.522-16.039,45.656-16.537,17.482-39.93,21.817-40.174,21.863l-5.124.9-4.738-20.4,5.813-.935C2784.1-32.69,2787.581-61.271,2787.125-73.26Z" transform="translate(-1715.955 1767.83)" fill="#fff"/>
      <path id="Path_490" data-name="Path 490" d="M2169.522,49.19c-15.721,14.425-38.129,25.186-69.723,23.268l-3.819-.229-2.187-15.852,5.639.3c20.031,1.06,67.955-4,80.114-73.835l.856-4.926,24.3,6.033-.837,4.34C2203.753-11.141,2196.514,24.421,2169.522,49.19Z" transform="translate(-476.087 1767.83)" fill="#fff"/>
      <path id="Path_491" data-name="Path 491" d="M2280.545,70.77c-17.512-8.632-29.167-21.669-34.657-38.744-7.717-24.116-.1-48.092.249-49.146l1.75-5.131,21.331,6.016-2.078,5.778c-15.643,43.408,9.626,61.646,21.211,67.463l6.186,3.1-9.785,12.739Z" transform="translate(-714.579 1767.83)" fill="#fff"/>
      <path id="Path_492" data-name="Path 492" d="M2039.977-199.516a79.813,79.813,0,0,1-5.695,6.33c-11.043,11.023-24.171,17.254-39.129,18.569-25.57,2.239-47.011-10.812-47.222-10.938l-4.589-2.81,10.468-19.272,5.137,3.275c38.335,24.487,61.384,4.194,69.438-5.7l4.365-5.3,10.156,12.231Z" transform="translate(-163.844 1767.83)" fill="#fff"/>
      <path id="Path_493" data-name="Path 493" d="M1905.012-150.975l6.125-.584.737,30.8-5.423.417c-.711.057-45.271,3.024-83.443-20.963-22.231-13.97-42.285-37.068-50.278-75.191l-.97-4.607,18.1-7.748,1.476,6.791C1796.592-197.944,1818.17-142.707,1905.012-150.975Z" transform="translate(138.77 1767.83)" fill="#fff"/>
      <path id="Path_494" data-name="Path 494" d="M2046.583-34.755l7.068-.437-.2,26.977-6.241.276c-.318.014-32.937,1.2-60.183-17.159-18.908-12.738-30.686-31.59-35-56.042l-.96-5.354,17.829-6.957,1.442,7.872C1973.383-69.041,1986.914-30.973,2046.583-34.755Z" transform="translate(-182.306 1767.83)" fill="#fff"/>
      <path id="Path_495" data-name="Path 495" d="M1928.12-81.976c-17.274-6.562-34.311-19.724-45.1-44.925l-1.308-3.044,11.42-7.853,1.96,4.482c6.963,15.916,29.5,51.044,88.281,33.316l4.145-1.251,4.772,21.15-3.685,1.038C1988.119-78.925,1957.781-70.708,1928.12-81.976Z" transform="translate(-51.59 1767.83)" fill="#fff"/>
      <path id="Path_496" data-name="Path 496" d="M1859.762-73.26l-.253-6.63,15.089,2.306.215,4.5c.822,18.159-4.57,33.522-16.039,45.656-16.537,17.482-39.93,21.817-40.174,21.863l-5.124.9-4.738-20.4,5.813-.935C1856.735-32.69,1860.218-61.271,1859.762-73.26Z" transform="translate(138.771 1767.83)" fill="#fff"/>
      <path id="Path_497" data-name="Path 497" d="M2516.162-557.906c20.209,18.257,75.055,53.933,147.63-9.285l5.117-4.46,20.45,27.149-4.6,3.858c-.6.507-38.66,31.8-88.308,34.817-28.915,1.755-61.744-6.074-93.41-35.131l-3.829-3.508,11.258-18.582Z" transform="translate(-1366.171 1767.83)" fill="#fff"/>
      <path id="Path_498" data-name="Path 498" d="M2616.883-457.976l21.716-.69-1.211,7.571c-4.29,26.895-4.3,92.323,88.257,118.708l6.529,1.859-11.613,31.944-5.74-1.75c-.753-.228-47.736-15.077-77.326-55.057-17.234-23.285-28.565-55.075-21.466-97.461Z" transform="translate(-1523.648 1767.83)" fill="#fff"/>
      <path id="Path_499" data-name="Path 499" d="M2544.906-465.226l-3.013-5.151,16.01-14.181,4.495,7.578c10.024,16.916,40.246,53.233,104.109,25.03l7.14-3.152,10.313,28.73-6.345,2.675a135.772,135.772,0,0,1-46.55,8.383,108.444,108.444,0,0,1-25.736-2.983C2579.7-424.582,2559.365-440.374,2544.906-465.226Z" transform="translate(-1403.449 1767.83)" fill="#fff"/>
      <path id="Path_500" data-name="Path 500" d="M2870.989-421.533l-1.224-7.764,22.259.753.864,5.254c7.189,43.464-4.493,76.028-22.207,99.861-30.417,40.921-78.61,56.044-79.382,56.276l-5.888,1.782-11.837-32.77,6.7-1.892C2875.208-326.886,2875.332-393.955,2870.989-421.533Z" transform="translate(-1846.211 1767.83)" fill="#fff"/>
      <path id="Path_501" data-name="Path 501" d="M2619.694-358.717l4.857-1.06.286,11.436-3.293.751c-13.289,3-25.332,1.042-35.794-5.821-15.075-9.9-21.352-26.586-21.419-26.76l-1.339-3.661,14.422-6.181,1.455,4.165C2589.365-355.609,2610.909-356.8,2619.694-358.717Z" transform="translate(-1365.425 1767.83)" fill="#fff"/>
      <path id="Path_502" data-name="Path 502" d="M2770.151-520.119l-4.3-6.919-13.768,12.71,2.874,4.729c11.637,19.039,27.674,30.965,47.677,35.433,28.832,6.428,55.608-5.23,55.889-5.35l5.832-2.6-9.188-24-6.556,3.041C2801.1-480.923,2777.921-507.608,2770.151-520.119Z" transform="translate(-1794.042 1767.83)" fill="#fff"/>
      <path id="Path_503" data-name="Path 503" d="M2052.481-290.2c20.208,18.258,75.054,53.933,147.629-9.284l5.117-4.46,20.451,27.148-4.6,3.859c-.6.507-38.66,31.8-88.309,34.816-28.915,1.756-61.744-6.073-93.409-35.13l-3.83-3.509,11.258-18.581Z" transform="translate(-438.808 1767.83)" fill="#fff"/>
      <path id="Path_504" data-name="Path 504" d="M2503.66-467.222a80.409,80.409,0,0,1-5.7,6.33c-11.044,11.022-24.171,17.254-39.129,18.568-25.57,2.24-47.012-10.811-47.222-10.938l-4.59-2.81,10.468-19.271,5.138,3.275c38.334,24.486,61.383,4.194,69.437-5.7l4.365-5.3,10.156,12.231Z" transform="translate(-1091.208 1767.83)" fill="#fff"/>
      <path id="Path_505" data-name="Path 505" d="M2153.2-190.269l21.716-.691-1.211,7.572c-4.291,26.894-4.3,92.322,88.257,118.707l6.528,1.859-11.612,31.945-5.741-1.751c-.753-.227-47.736-15.076-77.326-55.057-17.233-23.284-28.564-55.075-21.465-97.461Z" transform="translate(-596.284 1767.83)" fill="#fff"/>
      <path id="Path_506" data-name="Path 506" d="M2368.693-418.681l6.125-.585.737,30.8-5.424.416c-.71.057-45.271,3.024-83.442-20.963-22.231-13.97-42.286-37.067-50.278-75.191l-.97-4.606,18.1-7.748,1.477,6.791C2260.273-465.65,2281.851-410.414,2368.693-418.681Z" transform="translate(-788.592 1767.83)" fill="#fff"/>
      <path id="Path_507" data-name="Path 507" d="M2210.043-393.187l.865-7.956L2229.2-395.5l-.567,5.4c-2.526,24.7-12.9,44.372-30.828,58.444-25.826,20.3-58.454,21.49-58.752,21.5l-6.275.179-2.168-26.89,7.091-.07C2197.453-337.528,2208.193-376.47,2210.043-393.187Z" transform="translate(-537.398 1767.83)" fill="#fff"/>
      <path id="Path_508" data-name="Path 508" d="M2081.225-197.519l-3.013-5.151,16.011-14.181,4.5,7.578c10.024,16.915,40.245,53.233,104.109,25.03l7.14-3.152,10.312,28.729-6.344,2.675a135.739,135.739,0,0,1-46.551,8.384,108.454,108.454,0,0,1-25.736-2.984C2116.021-156.876,2095.684-172.668,2081.225-197.519Z" transform="translate(-476.087 1767.83)" fill="#fff"/>
      <path id="Path_509" data-name="Path 509" d="M2433.379-245.128c26.512,52.218,65.365,44.67,80.8,39.032l7.419-2.715,3.013,18.6-5.012,1.88a89.474,89.474,0,0,1-31.415,6.006,76.7,76.7,0,0,1-33.364-7.647c-28.978-13.833-44.312-42-44.452-42.264l-2.9-5.48,22.754-13.653Z" transform="translate(-1109.669 1767.83)" fill="#fff"/>
      <path id="Path_510" data-name="Path 510" d="M2510.265-302.462l7.067-.436-.2,26.976-6.242.277c-.318.013-32.936,1.2-60.182-17.16-18.909-12.737-30.686-31.589-35.005-56.042l-.96-5.354,17.828-6.956,1.443,7.871C2437.065-336.748,2450.6-298.68,2510.265-302.462Z" transform="translate(-1109.669 1767.83)" fill="#fff"/>
      <path id="Path_511" data-name="Path 511" d="M2407.307-145.406l6.4,4.455c57.221,39.977,93.9,10.193,106.983-4.485l5.857-6.573,12.988,17.015-3.948,4.465c-18.994,21.609-41.986,33.185-68.339,34.408-1.561.069-3.113.1-4.644.1-36.079,0-64.938-19.133-65.236-19.342l-5.718-3.848Z" transform="translate(-1108.789 1767.83)" fill="#fff"/>
      <path id="Path_512" data-name="Path 512" d="M2407.309-153.827l-1.225-7.763,22.259.753.864,5.253c7.189,43.465-4.493,76.029-22.207,99.861C2376.584-14.8,2328.391.322,2327.619.553l-5.888,1.783-11.838-32.77,6.7-1.893C2411.527-59.179,2411.651-126.249,2407.309-153.827Z" transform="translate(-918.849 1767.83)" fill="#fff"/>
      <path id="Path_513" data-name="Path 513" d="M2169.522-486.224c-15.721,14.426-38.129,25.187-69.723,23.269l-3.819-.229-2.187-15.852,5.639.3c20.031,1.06,67.955-4,80.114-73.835l.856-4.926,24.3,6.032-.837,4.341C2203.753-546.554,2196.514-510.992,2169.522-486.224Z" transform="translate(-476.087 1767.83)" fill="#fff"/>
      <path id="Path_514" data-name="Path 514" d="M2280.545-464.644c-17.512-8.631-29.167-21.669-34.657-38.743-7.717-24.116-.1-48.092.249-49.146l1.75-5.131,21.331,6.016-2.078,5.778c-15.643,43.407,9.626,61.646,21.211,67.463l6.186,3.1-9.785,12.739Z" transform="translate(-714.579 1767.83)" fill="#fff"/>
      <path id="Path_515" data-name="Path 515" d="M2391.8-349.682c-17.275-6.563-34.311-19.725-45.1-44.925l-1.307-3.045,11.42-7.853,1.959,4.482c6.964,15.916,29.5,51.045,88.281,33.317l4.145-1.251,4.773,21.15-3.685,1.038C2451.8-346.632,2421.461-338.415,2391.8-349.682Z" transform="translate(-978.952 1767.83)" fill="#fff"/>
      <path id="Path_516" data-name="Path 516" d="M2323.443-340.967l-.253-6.629,15.09,2.305.215,4.5c.821,18.159-4.57,33.522-16.039,45.656-16.537,17.483-39.93,21.817-40.175,21.864l-5.123.9-4.739-20.395,5.813-.935C2320.417-300.4,2323.9-328.978,2323.443-340.967Z" transform="translate(-788.592 1767.83)" fill="#fff"/>
      <path id="Path_517" data-name="Path 517" d="M2546.946-184.588l-3.554-3.476-6.312,9.54,2.393,2.385c9.671,9.593,20.916,14.328,33.426,14.064,18.029-.388,32.206-11.2,32.355-11.311l3.079-2.392-8.943-12.894-3.444,2.758C2571-165.856,2553.375-178.3,2546.946-184.588Z" transform="translate(-1323.009 1767.83)" fill="#fff"/>
      <path id="Path_518" data-name="Path 518" d="M2156.013-91.01l4.857-1.06.286,11.435-3.294.752c-13.288,3-25.332,1.042-35.794-5.822-15.074-9.9-21.352-26.585-21.418-26.759l-1.34-3.662,14.423-6.18,1.455,4.165C2125.684-87.9,2147.228-89.1,2156.013-91.01Z" transform="translate(-438.062 1767.83)" fill="#fff"/>
      <path id="Path_519" data-name="Path 519" d="M2306.469-252.413l-4.3-6.918-13.768,12.709,2.874,4.729c11.637,19.039,27.674,30.966,47.677,35.433,28.832,6.428,55.609-5.23,55.889-5.35l5.833-2.6-9.189-24-6.555,3.041C2337.415-213.216,2314.24-239.9,2306.469-252.413Z" transform="translate(-866.679 1767.83)" fill="#fff"/>
      <path id="Path_520" data-name="Path 520" d="M1969.7-512.835c26.512,52.219,65.366,44.671,80.8,39.032l7.419-2.715,3.013,18.6-5.012,1.879a89.451,89.451,0,0,1-31.415,6.007,76.686,76.686,0,0,1-33.363-7.648c-28.979-13.832-44.313-41.995-44.452-42.264l-2.9-5.479,22.753-13.654Z" transform="translate(-182.306 1767.83)" fill="#fff"/>
      <path id="Path_521" data-name="Path 521" d="M1943.626-413.113l6.4,4.455c57.221,39.977,93.9,10.193,106.983-4.485l5.858-6.573,12.987,17.015-3.948,4.465c-18.994,21.61-41.986,33.185-68.339,34.408-1.561.07-3.112.1-4.644.1-36.078,0-64.937-19.134-65.236-19.343l-5.718-3.848Z" transform="translate(-181.427 1767.83)" fill="#fff"/>
      <path id="Path_522" data-name="Path 522" d="M1943.626-421.533,1942.4-429.3l22.26.753.864,5.254c7.189,43.464-4.494,76.028-22.208,99.861-30.416,40.921-78.609,56.044-79.381,56.276l-5.888,1.782-11.837-32.77,6.7-1.892C1947.845-326.886,1947.968-393.955,1943.626-421.533Z" transform="translate(8.515 1767.83)" fill="#fff"/>
      <path id="Path_523" data-name="Path 523" d="M2083.266-452.294l-3.555-3.476-6.312,9.54,2.393,2.385c9.672,9.593,20.917,14.328,33.426,14.063,18.03-.388,32.207-11.2,32.356-11.311l3.078-2.392-8.943-12.893-3.444,2.758C2107.32-433.563,2089.694-446.009,2083.266-452.294Z" transform="translate(-395.647 1767.83)" fill="#fff"/>
      <path id="Path_524" data-name="Path 524" d="M1842.789-520.119l-4.3-6.919-13.769,12.71,2.875,4.729c11.636,19.039,27.674,30.965,47.676,35.433,28.833,6.428,55.609-5.23,55.89-5.35l5.832-2.6-9.188-24-6.556,3.041C1873.734-480.923,1850.559-507.608,1842.789-520.119Z" transform="translate(60.683 1767.83)" fill="#fff"/>
      <path id="Path_525" data-name="Path 525" d="M2407.309-689.24,2406.084-697l22.259.754.864,5.253c7.189,43.464-4.493,76.028-22.207,99.861-30.416,40.922-78.609,56.044-79.381,56.276l-5.888,1.782-11.838-32.77,6.7-1.892C2411.527-594.593,2411.651-661.662,2407.309-689.24Z" transform="translate(-918.849 1767.83)" fill="#fff"/>
    </g>
  </g>
</svg>
